<svg width="59" height="46" viewBox="0 0 59 46" fill="none" xmlns="http://www.w3.org/2000/svg">
<path d="M15.366 27H22.6831C24.1465 27 25.1709 27.2274 25.9027 27.6823C26.6344 28.1372 27.0734 28.8196 27.0734 29.8431V30.4117C27.0734 30.6392 26.927 30.8666 26.927 31.0941C26.6344 32.3451 25.9026 33.2549 24.7319 34.0509C23.5612 34.7333 22.2441 35.1882 20.6343 35.1882H16.6831L15.5124 39.7372H12.1465L15.366 27ZM17.1221 32.9137H20.3416C21.2197 32.9137 21.8051 32.8 22.3904 32.4588C22.8295 32.1176 23.1222 31.6627 23.4148 31.0941V30.5255C23.4148 30.0706 23.2685 29.7294 22.8295 29.5019C22.3904 29.2745 21.8051 29.1608 20.927 29.1608H18.1465L17.1221 32.9137Z" fill="#0909A4"/>
<path d="M18.1464 27H22.5366C24.0001 27 25.0245 27.2274 25.7562 27.6823C26.4879 28.1372 26.9269 28.8196 26.9269 29.8431V30.4117C26.9269 30.6392 26.7806 30.8666 26.7806 31.0941C26.4879 32.3451 25.7562 33.2549 24.5854 34.0509C23.4147 34.7333 22.0976 35.1882 20.4878 35.1882H16.5366L15.3659 39.7372H12L18.1464 27ZM17.122 32.9137H20.3415C21.2196 32.9137 21.8049 32.8 22.3903 32.4588C22.8293 32.1176 23.122 31.6627 23.4147 31.0941V30.5255C23.4147 30.0706 23.2683 29.7294 22.8293 29.5019C22.3903 29.2745 21.8049 29.1608 20.9269 29.1608H18.1464L17.122 32.9137Z" fill="#0000FB"/>
<path d="M42.0002 41.2156C40.9758 43.0352 39.9514 44.0587 39.3661 44.5136C38.7807 44.9685 37.6099 46.1057 34.6831 45.992L34.9758 44.6273C37.3173 44.0587 38.6343 41.443 39.3661 40.3058L38.488 31.8901H42.0002L42.1466 37.2352L45.0734 31.8901H48.0002L42.0002 41.2156Z" fill="#0000FB"/>
<path d="M33.8047 32.4588L32.6339 33.1411C31.4632 32.3451 30.2925 31.8902 28.0973 32.6862C25.1705 33.7098 22.6827 41.8979 30.7315 39.1685L31.1705 39.6234L34.39 39.7372L36.4388 32.3451L33.8047 32.4588ZM31.9022 36.5529C31.3168 37.6901 30.2924 38.4862 29.4144 38.2587C28.5363 38.0313 28.2437 36.894 28.6827 35.7568C29.2681 34.6196 30.2924 33.8235 31.1705 34.0509C32.1949 34.2784 32.4876 35.4156 31.9022 36.5529Z" fill="#0000FB"/>
<path d="M28.5366 39.7372C29.122 39.6235 29.8537 39.5098 30.7318 39.2823L31.1708 39.7372L34.3903 39.851L36.4391 32.4589H35.7074C34.244 35.302 31.6098 37.8039 28.5366 39.7372Z" fill="#0707C4"/>
<path d="M7.9925 24.22C6.80583 24.22 5.8725 23.9867 5.1925 23.52C4.52583 23.0533 4.05917 22.42 3.7925 21.62C3.52583 20.8067 3.3925 19.8733 3.3925 18.82V13.04C3.3925 11.9333 3.52583 10.9733 3.7925 10.16C4.05917 9.34667 4.52583 8.72 5.1925 8.28C5.8725 7.84 6.80583 7.62 7.9925 7.62C9.1125 7.62 9.98583 7.81333 10.6125 8.2C11.2525 8.57333 11.7058 9.11333 11.9725 9.82C12.2392 10.5267 12.3725 11.3467 12.3725 12.28V13.64H9.5325V12.24C9.5325 11.7867 9.50583 11.3733 9.4525 11C9.4125 10.6267 9.28583 10.3333 9.0725 10.12C8.8725 9.89333 8.51917 9.78 8.0125 9.78C7.50583 9.78 7.1325 9.9 6.8925 10.14C6.66583 10.3667 6.51917 10.68 6.4525 11.08C6.38583 11.4667 6.3525 11.9067 6.3525 12.4V19.44C6.3525 20.0267 6.39917 20.5133 6.4925 20.9C6.58583 21.2733 6.7525 21.56 6.9925 21.76C7.24583 21.9467 7.58583 22.04 8.0125 22.04C8.50583 22.04 8.8525 21.9267 9.0525 21.7C9.26583 21.46 9.39917 21.1467 9.4525 20.76C9.50583 20.3733 9.5325 19.94 9.5325 19.46V18H12.3725V19.3C12.3725 20.26 12.2458 21.1133 11.9925 21.86C11.7392 22.5933 11.2925 23.1733 10.6525 23.6C10.0258 24.0133 9.13917 24.22 7.9925 24.22ZM15.6733 24V7.8H18.6133V14.58H21.9333V7.8H24.8733V24H21.9333V16.68H18.6133V24H15.6733ZM28.632 24V7.8H31.552V24H28.632ZM35.2598 24V7.8H37.3198L41.2598 17.04V7.8H43.6998V24H41.7398L37.7798 14.32V24H35.2598ZM46.5383 24L49.7783 7.8H52.9383L56.1783 24H53.4383L52.7983 20.26H49.9783L49.3183 24H46.5383ZM50.2783 18.38H52.4783L51.3783 11.58L50.2783 18.38Z" fill="black"/>
</svg>
