<svg xmlns="http://www.w3.org/2000/svg" version="1.1" xmlns:xlink="http://www.w3.org/1999/xlink" width="512" height="512" x="0" y="0" viewBox="0 0 48 48" style="enable-background:new 0 0 512 512" xml:space="preserve" fill-rule="evenodd" class=""><g><path d="m30.982 36.676 2.828 2.828a1 1 0 0 0 1.414 0l5.656-5.656a1 1 0 0 0-1.414-1.414l-4.949 4.949-2.121-2.121a1 1 0 0 0-1.414 1.414zM10 21h20a1 1 0 0 0 0-2H10a1 1 0 0 0 0 2zM10 27h14a1 1 0 0 0 0-2H10a1 1 0 0 0 0 2zM10 33h12a1 1 0 0 0 0-2H10a1 1 0 0 0 0 2zM10 39h12a1 1 0 0 0 0-2H10a1 1 0 0 0 0 2z" fill="#000000" opacity="1" data-original="#000000" class=""></path><path d="M36 47H6a5.004 5.004 0 0 1-3.536-1.464A5.004 5.004 0 0 1 1 42V13.657c0-1.326.527-2.598 1.464-3.536l7.657-7.657A5.004 5.004 0 0 1 13.657 1H34c1.326 0 2.598.527 3.536 1.464A5.004 5.004 0 0 1 39 6v19.415c4.615 1.307 8 5.554 8 10.585 0 6.071-4.929 11-11 11zm1-21.955V6c0-.796-.316-1.559-.879-2.121A2.996 2.996 0 0 0 34 3H13.657a3 3 0 0 0-.657.073V8a5.004 5.004 0 0 1-1.464 3.536A5.004 5.004 0 0 1 8 13H3.073a3 3 0 0 0-.073.657V42c0 .796.316 1.559.879 2.121A2.996 2.996 0 0 0 6 45h23.677A10.99 10.99 0 0 1 25 36c0-6.071 4.929-11 11-11 .337 0 .67.015 1 .045zM36 27c4.967 0 9 4.033 9 9s-4.033 9-9 9-9-4.033-9-9 4.033-9 9-9zM11 4.414 4.414 11H8c.796 0 1.559-.316 2.121-.879A2.996 2.996 0 0 0 11 8z" fill="#000000" opacity="1" data-original="#000000" class=""></path></g></svg>