<svg width="90" height="90" viewBox="0 0 90 90" fill="none" xmlns="http://www.w3.org/2000/svg">
<path d="M75 39.5535L65.0357 49.5142L60.7142 45.1642C60.3789 44.8293 59.9244 44.6414 59.4505 44.6417C58.9766 44.6421 58.5223 44.8306 58.1875 45.166C57.8526 45.5013 57.6647 45.9559 57.665 46.4297C57.6654 46.9036 57.8539 47.3579 58.1892 47.6927L63.8 53.3035C64.1348 53.6382 64.589 53.8263 65.0625 53.8263C65.536 53.8263 65.9901 53.6382 66.325 53.3035L77.5535 42.0785C77.7241 41.9137 77.8601 41.7167 77.9537 41.4988C78.0473 41.281 78.0966 41.0466 78.0986 40.8095C78.1007 40.5724 78.0555 40.3373 77.9657 40.1178C77.8759 39.8984 77.7433 39.699 77.5757 39.5313C77.408 39.3637 77.2086 39.2311 76.9892 39.1413C76.7697 39.0515 76.5346 39.0063 76.2975 39.0084C76.0604 39.0104 75.826 39.0597 75.6082 39.1533C75.3903 39.2469 75.1933 39.3829 75.0285 39.5535H75Z" fill="#0000FB"/>
<path d="M89.2857 46.4286C89.2763 41.3695 87.479 36.4765 84.2114 32.6142C80.9438 28.7519 76.4162 26.1688 71.4286 25.3214V16.0714C71.429 15.8368 71.3832 15.6043 71.2937 15.3874C71.2042 15.1705 71.0729 14.9733 70.9072 14.8071L56.6214 0.521432C56.4553 0.355711 56.2581 0.22436 56.0412 0.13489C55.8242 0.0454195 55.5918 -0.000416249 55.3571 2.8482e-06H12.5C12.0264 2.8482e-06 11.5722 0.18814 11.2373 0.523026C10.9024 0.857913 10.7143 1.31212 10.7143 1.78572V10.7143H1.78571C1.31211 10.7143 0.85791 10.9024 0.523024 11.2373C0.188137 11.5722 0 12.0264 0 12.5V87.5C0 87.9736 0.188137 88.4278 0.523024 88.7627C0.85791 89.0976 1.31211 89.2857 1.78571 89.2857H62.5C62.9736 89.2857 63.4278 89.0976 63.7627 88.7627C64.0976 88.4278 64.2857 87.9736 64.2857 87.5V78.5714H69.6429C70.1165 78.5714 70.5707 78.3833 70.9056 78.0484C71.2404 77.7135 71.4286 77.2593 71.4286 76.7857V67.5357C76.4162 66.6883 80.9438 64.1053 84.2114 60.243C87.479 56.3807 89.2763 51.4877 89.2857 46.4286ZM57.1429 6.09643L65.3321 14.2857H57.1429V6.09643ZM60.7143 85.7143H3.57143V14.2857H10.7143V76.7857C10.7143 77.2593 10.9024 77.7135 11.2373 78.0484C11.5722 78.3833 12.0264 78.5714 12.5 78.5714H60.7143V85.7143ZM67.8571 75H14.2857V3.57143H53.5714V16.0714C53.5714 16.545 53.7596 16.9992 54.0945 17.3341C54.4293 17.669 54.8835 17.8571 55.3571 17.8571H67.8571V25C62.1739 25 56.7235 27.2577 52.7049 31.2763C48.6862 35.2949 46.4286 40.7454 46.4286 46.4286C46.4286 52.1118 48.6862 57.5622 52.7049 61.5809C56.7235 65.5995 62.1739 67.8571 67.8571 67.8571V75ZM67.8571 64.2857C64.3253 64.2857 60.8728 63.2384 57.9362 61.2762C54.9997 59.3141 52.7109 56.5252 51.3593 53.2622C50.0077 49.9992 49.6541 46.4088 50.3431 42.9448C51.0321 39.4809 52.7329 36.299 55.2302 33.8017C57.7276 31.3043 60.9094 29.6036 64.3734 28.9146C67.8373 28.2255 71.4278 28.5792 74.6908 29.9307C77.9538 31.2823 80.7427 33.5711 82.7048 36.5077C84.667 39.4443 85.7143 42.8968 85.7143 46.4286C85.7086 51.1628 83.8254 55.7016 80.4778 59.0492C77.1302 62.3969 72.5914 64.28 67.8571 64.2857Z" fill="black"/>
<path d="M32.1428 43.3786L26.6143 48.9286L24.4714 46.7858C24.1366 46.4505 23.6822 46.2619 23.2084 46.2616C22.7345 46.2612 22.2799 46.4492 21.9446 46.784C21.6093 47.1188 21.4207 47.5732 21.4204 48.047C21.4201 48.5209 21.608 48.9755 21.9428 49.3108L25.3464 52.7108C25.6813 53.0456 26.1354 53.2336 26.6089 53.2336C27.0824 53.2336 27.5365 53.0456 27.8714 52.7108L34.675 45.9251C35.0103 45.5902 35.1988 45.1359 35.1992 44.662C35.1995 44.1882 35.0116 43.7336 34.6768 43.3983C34.3419 43.063 33.8876 42.8744 33.4137 42.8741C32.9399 42.8737 32.4853 43.0617 32.15 43.3965L32.1428 43.3786ZM32.1428 57.6644L26.6143 63.2144L24.4714 61.0715C24.3056 60.9055 24.1087 60.7737 23.892 60.6838C23.6753 60.5938 23.443 60.5475 23.2084 60.5473C22.9737 60.5471 22.7414 60.5932 22.5245 60.6828C22.3077 60.7725 22.1106 60.9039 21.9446 61.0697C21.7786 61.2355 21.6468 61.4324 21.5569 61.6491C21.467 61.8658 21.4206 62.0981 21.4204 62.3327C21.4202 62.5674 21.4663 62.7997 21.5559 63.0166C21.6456 63.2334 21.777 63.4305 21.9428 63.5965L25.3464 66.9965C25.6813 67.3313 26.1354 67.5193 26.6089 67.5193C27.0824 67.5193 27.5365 67.3313 27.8714 66.9965L34.675 60.2108C35.0103 59.8759 35.1988 59.4216 35.1992 58.9478C35.1995 58.4739 35.0116 58.0193 34.6768 57.684C34.3419 57.3487 33.8876 57.1601 33.4137 57.1598C32.9399 57.1595 32.4853 57.3474 32.15 57.6822L32.1428 57.6644ZM23.2143 14.2858H44.6428C45.1164 14.2858 45.5706 14.0976 45.9055 13.7628C46.2404 13.4279 46.4285 12.9737 46.4285 12.5001C46.4285 12.0265 46.2404 11.5723 45.9055 11.2374C45.5706 10.9025 45.1164 10.7144 44.6428 10.7144H23.2143C22.7407 10.7144 22.2865 10.9025 21.9516 11.2374C21.6167 11.5723 21.4285 12.0265 21.4285 12.5001C21.4285 12.9737 21.6167 13.4279 21.9516 13.7628C22.2865 14.0976 22.7407 14.2858 23.2143 14.2858ZM44.6428 21.4286H23.2143C22.7407 21.4286 22.2865 21.6168 21.9516 21.9517C21.6167 22.2866 21.4285 22.7408 21.4285 23.2144C21.4285 23.688 21.6167 24.1422 21.9516 24.477C22.2865 24.8119 22.7407 25.0001 23.2143 25.0001H44.6428C45.1164 25.0001 45.5706 24.8119 45.9055 24.477C46.2404 24.1422 46.4285 23.688 46.4285 23.2144C46.4285 22.7408 46.2404 22.2866 45.9055 21.9517C45.5706 21.6168 45.1164 21.4286 44.6428 21.4286ZM33.9285 32.1429H23.2143C22.7407 32.1429 22.2865 32.3311 21.9516 32.6659C21.6167 33.0008 21.4285 33.455 21.4285 33.9286C21.4285 34.4022 21.6167 34.8564 21.9516 35.1913C22.2865 35.5262 22.7407 35.7144 23.2143 35.7144H33.9285C34.4021 35.7144 34.8564 35.5262 35.1912 35.1913C35.5261 34.8564 35.7143 34.4022 35.7143 33.9286C35.7143 33.455 35.5261 33.0008 35.1912 32.6659C34.8564 32.3311 34.4021 32.1429 33.9285 32.1429Z" fill="black"/>
</svg>
