<svg width="200" height="200" viewBox="0 0 200 200" fill="none" xmlns="http://www.w3.org/2000/svg">
<g clip-path="url(#clip0_135_753)">
<path d="M168.476 76.4086C169.307 76.4086 170.103 76.0787 170.69 75.4914C171.278 74.9041 171.608 74.1075 171.608 73.277V43.2148C171.608 42.3843 171.278 41.5877 170.69 41.0004C170.103 40.4131 169.307 40.0832 168.476 40.0832H154.906V29.8539C154.906 29.0233 154.576 28.2268 153.989 27.6395C153.402 27.0522 152.605 26.7223 151.775 26.7223H113.809L114.662 24.1637C114.819 23.6929 114.862 23.1916 114.787 22.7011C114.712 22.2106 114.522 21.7448 114.232 21.3423C113.942 20.9397 113.56 20.6119 113.118 20.3857C112.677 20.1595 112.188 20.0415 111.691 20.0414H101.462V14.1008L107.616 4.86914C108.979 2.82344 107.46 0 105.01 0H78.2882C75.8382 0 74.3194 2.82344 75.6827 4.86836L81.837 14.1004V20.0414H71.6073C71.1111 20.0413 70.6219 20.1592 70.1801 20.3854C69.7384 20.6115 69.3567 20.9394 69.0666 21.342C68.7764 21.7446 68.5861 22.2104 68.5114 22.701C68.4366 23.1916 68.4796 23.6929 68.6366 24.1637L69.4894 26.7223H31.5237C30.6932 26.7223 29.8966 27.0522 29.3093 27.6395C28.722 28.2268 28.3921 29.0233 28.3921 29.8539V180.167C28.3921 180.998 28.722 181.794 29.3093 182.382C29.8966 182.969 30.6932 183.299 31.5237 183.299H41.7534V196.869C41.7534 197.699 42.0834 198.496 42.6707 199.083C43.2579 199.67 44.0545 200 44.8851 200H168.476C169.306 200 170.103 199.67 170.69 199.083C171.277 198.496 171.607 197.699 171.607 196.869V86.6395C171.607 85.8089 171.277 85.0123 170.69 84.425C170.103 83.8378 169.306 83.5078 168.476 83.5078C167.645 83.5078 166.849 83.8378 166.261 84.425C165.674 85.0123 165.344 85.8089 165.344 86.6395V193.737H48.0167V183.299H64.9269C65.7574 183.299 66.554 182.969 67.1413 182.382C67.7286 181.794 68.0585 180.998 68.0585 180.167C68.0585 179.337 67.7286 178.54 67.1413 177.953C66.554 177.365 65.7574 177.036 64.9269 177.036H34.6554V32.9855H71.5769L75.3167 44.2055C75.5245 44.829 75.9233 45.3712 76.4565 45.7555C76.9896 46.1398 77.6302 46.3465 78.2874 46.3465H105.01C105.667 46.3465 106.307 46.1398 106.841 45.7555C107.374 45.3712 107.773 44.829 107.98 44.2055L111.721 32.9855H148.642V177.036H78.2882C77.4576 177.036 76.6611 177.365 76.0738 177.953C75.4865 178.54 75.1565 179.337 75.1565 180.167C75.1565 180.998 75.4865 181.794 76.0738 182.382C76.6611 182.969 77.4576 183.299 78.2882 183.299H151.775C152.605 183.299 153.402 182.969 153.989 182.382C154.576 181.794 154.906 180.998 154.906 180.167V46.3469H165.344V73.2777C165.344 73.6889 165.426 74.0961 165.583 74.476C165.74 74.8559 165.971 75.201 166.262 75.4918C166.553 75.7825 166.898 76.0131 167.278 76.1704C167.658 76.3277 168.065 76.4086 168.476 76.4086ZM81.837 40.0836H80.5452L75.9522 26.3047H81.837V40.0836ZM95.1983 40.0836H88.1003V26.3047H95.1983V40.0836ZM95.7241 11.4156C95.3811 11.93 95.198 12.5345 95.198 13.1527V20.0422H88.0999V13.1523C88.1 12.534 87.9169 11.9296 87.5737 11.4152L84.139 6.26289H99.1589L95.7241 11.4156ZM102.753 40.0836H101.461V26.3047H107.346L102.753 40.0836Z" fill="#0000FB"/>
<path d="M140.962 51.4157C140.723 51.0809 140.42 50.7966 140.071 50.5788C139.722 50.361 139.334 50.2141 138.928 50.1466C138.523 50.079 138.108 50.092 137.707 50.1849C137.306 50.2778 136.928 50.4487 136.593 50.688L128.184 56.6946V53.236C128.184 52.4055 127.854 51.6089 127.266 51.0216C126.679 50.4343 125.883 50.1044 125.052 50.1044H98.3297C97.4991 50.1044 96.7026 50.4343 96.1153 51.0216C95.528 51.6089 95.198 52.4055 95.198 53.236V79.9583C95.198 80.7888 95.528 81.5854 96.1153 82.1727C96.7026 82.76 97.4991 83.0899 98.3297 83.0899H125.052C125.883 83.0899 126.679 82.76 127.266 82.1727C127.854 81.5854 128.184 80.7888 128.184 79.9583V64.3907L140.233 55.7837C140.568 55.5447 140.852 55.2422 141.07 54.8934C141.288 54.5445 141.435 54.1562 141.502 53.7506C141.57 53.345 141.557 52.93 141.464 52.5294C141.372 52.1288 141.201 51.7503 140.962 51.4157ZM121.921 61.1684L115.37 65.8477L110.565 61.0427C109.975 60.4719 109.183 60.1561 108.362 60.1631C107.541 60.1702 106.755 60.4996 106.174 61.0805C105.593 61.6613 105.264 62.447 105.257 63.2684C105.25 64.0897 105.566 64.8809 106.137 65.4716L112.817 72.152C113.886 73.2204 115.621 73.3641 116.852 72.4856L121.92 68.8649V76.827H101.461V56.3677H121.92V61.1684H121.921ZM78.2883 56.7852H48.2258C47.3952 56.7852 46.5987 57.1152 46.0114 57.7025C45.4241 58.2898 45.0941 59.0863 45.0941 59.9169C45.0941 60.7474 45.4241 61.544 46.0114 62.1313C46.5987 62.7186 47.3952 63.0485 48.2258 63.0485H78.2883C79.1188 63.0485 79.9154 62.7186 80.5027 62.1313C81.09 61.544 81.4199 60.7474 81.4199 59.9169C81.4199 59.0863 81.09 58.2898 80.5027 57.7025C79.9154 57.1152 79.1188 56.7852 78.2883 56.7852ZM64.927 70.1462H48.2254C46.4961 70.1462 45.0938 71.5477 45.0938 73.2778C45.0938 75.0079 46.4957 76.4095 48.2254 76.4095H64.927C66.6562 76.4095 68.0586 75.0079 68.0586 73.2778C68.0586 71.5477 66.6562 70.1462 64.927 70.1462ZM125.052 93.5282H98.3301C97.4995 93.5282 96.703 93.8581 96.1157 94.4454C95.5284 95.0327 95.1984 95.8293 95.1984 96.6599V123.382C95.1984 124.213 95.5284 125.009 96.1157 125.597C96.703 126.184 97.4995 126.514 98.3301 126.514H125.052C125.883 126.514 126.679 126.184 127.267 125.597C127.854 125.009 128.184 124.213 128.184 123.382V96.6599C128.184 95.8293 127.854 95.0327 127.267 94.4454C126.679 93.8581 125.883 93.5282 125.052 93.5282ZM121.921 120.25H101.461V99.7911H121.921V120.25ZM78.2883 100.209H48.2258C47.3952 100.209 46.5987 100.539 46.0114 101.126C45.4241 101.713 45.0941 102.51 45.0941 103.34C45.0941 104.171 45.4241 104.967 46.0114 105.555C46.5987 106.142 47.3952 106.472 48.2258 106.472H78.2883C79.1103 106.459 79.8942 106.123 80.4709 105.537C81.0476 104.952 81.3708 104.162 81.3708 103.34C81.3708 102.518 81.0476 101.729 80.4709 101.143C79.8942 100.557 79.1103 100.222 78.2883 100.209ZM68.2672 113.57H48.2254C47.3948 113.57 46.5983 113.9 46.011 114.487C45.4237 115.075 45.0938 115.871 45.0938 116.702C45.0938 117.532 45.4237 118.329 46.011 118.916C46.5983 119.503 47.3948 119.833 48.2254 119.833H68.2672C69.0978 119.833 69.8943 119.503 70.4816 118.916C71.0689 118.329 71.3988 117.532 71.3988 116.702C71.3988 115.871 71.0689 115.075 70.4816 114.487C69.8943 113.9 69.0978 113.57 68.2672 113.57ZM125.052 136.952H98.3301C97.4995 136.952 96.703 137.282 96.1157 137.869C95.5284 138.457 95.1984 139.253 95.1984 140.084V166.806C95.1984 167.637 95.5284 168.433 96.1157 169.02C96.703 169.608 97.4995 169.938 98.3301 169.938H125.052C125.883 169.938 126.679 169.608 127.267 169.02C127.854 168.433 128.184 167.637 128.184 166.806V140.084C128.184 139.253 127.854 138.457 127.267 137.869C126.679 137.282 125.883 136.952 125.052 136.952ZM121.921 163.674H101.461V143.215H121.921V163.674ZM78.2883 143.633H48.2258C47.3952 143.633 46.5987 143.962 46.0114 144.55C45.4241 145.137 45.0941 145.934 45.0941 146.764C45.0941 147.595 45.4241 148.391 46.0114 148.979C46.5987 149.566 47.3952 149.896 48.2258 149.896H78.2883C79.1103 149.883 79.8942 149.547 80.4709 148.961C81.0476 148.375 81.3708 147.586 81.3708 146.764C81.3708 145.942 81.0476 145.153 80.4709 144.567C79.8942 143.981 79.1103 143.645 78.2883 143.633ZM64.927 156.994H48.2254C47.3948 156.994 46.5983 157.324 46.011 157.911C45.4237 158.498 45.0938 159.295 45.0938 160.125C45.0938 160.956 45.4237 161.753 46.011 162.34C46.5983 162.927 47.3948 163.257 48.2254 163.257H64.927C65.7575 163.257 66.5541 162.927 67.1414 162.34C67.7287 161.753 68.0586 160.956 68.0586 160.125C68.0586 159.295 67.7287 158.498 67.1414 157.911C66.5541 157.324 65.7575 156.994 64.927 156.994Z" fill="#0000FB"/>
</g>
<defs>
<clipPath id="clip0_135_753">
<rect width="200" height="200" fill="white"/>
</clipPath>
</defs>
</svg>
