<svg width="168" height="168" viewBox="0 0 168 168" fill="none" xmlns="http://www.w3.org/2000/svg">
<path d="M4.4698e-07 123.144V116.813C4.4698e-07 116.16 0.288086 115.534 0.800881 115.072C1.31368 114.611 2.00917 114.351 2.73438 114.351C3.45958 114.351 4.15508 114.611 4.66787 115.072C5.18067 115.534 5.46875 116.16 5.46875 116.813V123.144C5.46875 123.797 5.18067 124.423 4.66787 124.885C4.15508 125.346 3.45958 125.606 2.73438 125.606C2.00917 125.606 1.31368 125.346 0.800881 124.885C0.288086 124.423 4.4698e-07 123.797 4.4698e-07 123.144ZM138.139 2.46406V164.788C138.139 165.44 137.851 166.067 137.338 166.528C136.825 166.99 136.13 167.249 135.405 167.249H2.73438C2.37523 167.25 2.01958 167.186 1.68773 167.062C1.35589 166.939 1.05437 166.757 0.800422 166.529C0.546471 166.3 0.345067 166.029 0.207724 165.73C0.0703817 165.431 -0.000204953 165.111 4.4698e-07 164.788V134.733C4.4698e-07 134.08 0.288086 133.454 0.800881 132.992C1.31368 132.53 2.00917 132.271 2.73438 132.271C3.45958 132.271 4.15508 132.53 4.66787 132.992C5.18067 133.454 5.46875 134.08 5.46875 134.733V162.326H132.67V4.92594H41.0781V34.5289C41.0777 35.1818 40.7895 35.8077 40.2768 36.2693C39.7641 36.731 39.0688 36.9904 38.3438 36.9908H5.46875V104.643C5.46875 105.296 5.18067 105.922 4.66787 106.384C4.15508 106.846 3.45958 107.105 2.73438 107.105C2.00917 107.105 1.31368 106.846 0.800881 106.384C0.288086 105.922 4.4698e-07 105.296 4.4698e-07 104.643V34.5289C0.00121351 34.3745 0.0184762 34.2205 0.0515629 34.0689V34.0436C0.10201 33.8344 0.182367 33.6321 0.290625 33.4415C0.315625 33.3965 0.342188 33.3543 0.368751 33.3107C0.486017 33.1197 0.631046 32.9437 0.800001 32.7873L36.4094 0.723867C36.5817 0.573911 36.775 0.444807 36.9844 0.339814C37.0375 0.311678 37.0875 0.286357 37.1406 0.262441C37.3486 0.166345 37.5698 0.0953924 37.7984 0.0514231H37.85C38.0123 0.0239595 38.177 0.00936665 38.3422 0.0078125H135.405C136.129 0.0078108 136.823 0.266414 137.336 0.726889C137.849 1.18736 138.137 1.81211 138.139 2.46406ZM35.6094 8.40773L9.33594 32.0628H35.6094V8.40773ZM162.391 49.2608V44.2653H153.159V89.4035H162.391V60.0621C162.391 59.4092 162.679 58.783 163.192 58.3213C163.704 57.8596 164.4 57.6002 165.125 57.6002C165.85 57.6002 166.546 57.8596 167.059 58.3213C167.571 58.783 167.859 59.4092 167.859 60.0621V120.799C167.859 120.851 167.847 120.899 167.844 120.948C167.839 121.033 167.829 121.118 167.814 121.202C167.797 121.29 167.775 121.376 167.747 121.461C167.733 121.508 167.728 121.556 167.711 121.602L160.367 140.807C160.182 141.292 159.833 141.712 159.37 142.01C158.906 142.307 158.351 142.467 157.782 142.467C157.213 142.467 156.658 142.307 156.194 142.01C155.731 141.712 155.382 141.292 155.197 140.807L147.836 121.609C147.819 121.563 147.814 121.515 147.8 121.468C147.772 121.383 147.749 121.297 147.733 121.209C147.717 121.125 147.708 121.04 147.703 120.955C147.703 120.906 147.688 120.858 147.688 120.806V41.8034C147.688 41.7415 147.702 41.6853 147.706 41.6262C147.711 41.5671 147.706 41.5052 147.716 41.4447L150.094 26.8873C150.188 26.3014 150.513 25.7655 151.01 25.378C151.507 24.9904 152.143 24.7771 152.8 24.7771H162.744C163.401 24.7771 164.037 24.9904 164.534 25.378C165.031 25.7655 165.356 26.3014 165.45 26.8873L167.836 41.4447C167.845 41.5052 167.836 41.5657 167.845 41.6262C167.855 41.6867 167.864 41.7415 167.864 41.8034V49.2594C167.864 49.9123 167.576 50.5385 167.063 51.0002C166.55 51.4619 165.855 51.7213 165.13 51.7213C164.404 51.7213 163.709 51.4619 163.196 51.0002C162.683 50.5385 162.395 49.9123 162.395 49.2594L162.391 49.2608ZM155.164 29.7065L153.591 39.3402H161.959L160.386 29.7065H155.164ZM161.292 123.258H154.261L157.777 132.445L161.292 123.258ZM153.167 94.3244V118.337H162.398V94.3272L153.167 94.3244ZM30.0453 71.488H108.092C108.817 71.488 109.513 71.2287 110.026 70.767C110.538 70.3053 110.827 69.6791 110.827 69.0262C110.827 68.3732 110.538 67.747 110.026 67.2853C109.513 66.8237 108.817 66.5643 108.092 66.5643H30.0453C29.3201 66.5643 28.6246 66.8237 28.1118 67.2853C27.599 67.747 27.3109 68.3732 27.3109 69.0262C27.3109 69.6791 27.599 70.3053 28.1118 70.767C28.6246 71.2287 29.3201 71.488 30.0453 71.488ZM30.0453 86.8656H108.092C108.817 86.8656 109.513 86.6062 110.026 86.1445C110.538 85.6829 110.827 85.0567 110.827 84.4037C110.827 83.7508 110.538 83.1246 110.026 82.6629C109.513 82.2012 108.817 81.9419 108.092 81.9419H30.0453C29.3201 81.9419 28.6246 82.2012 28.1118 82.6629C27.599 83.1246 27.3109 83.7508 27.3109 84.4037C27.3109 85.0567 27.599 85.6829 28.1118 86.1445C28.6246 86.6062 29.3201 86.8656 30.0453 86.8656ZM27.3109 53.6486C27.3109 54.3015 27.599 54.9277 28.1118 55.3894C28.6246 55.8511 29.3201 56.1105 30.0453 56.1105H108.092C108.817 56.1105 109.513 55.8511 110.026 55.3894C110.538 54.9277 110.827 54.3015 110.827 53.6486C110.827 52.9956 110.538 52.3695 110.026 51.9078C109.513 51.4461 108.817 51.1867 108.092 51.1867H30.0453C29.3201 51.1867 28.6246 51.4461 28.1118 51.9078C27.599 52.3695 27.3109 52.9956 27.3109 53.6486ZM108.092 24.7335C108.817 24.7335 109.513 24.4741 110.026 24.0124C110.538 23.5507 110.827 22.9245 110.827 22.2716C110.827 21.6187 110.538 20.9925 110.026 20.5308C109.513 20.0691 108.817 19.8097 108.092 19.8097H66.5656C65.8404 19.8097 65.1449 20.0691 64.6321 20.5308C64.1193 20.9925 63.8313 21.6187 63.8313 22.2716C63.8313 22.9245 64.1193 23.5507 64.6321 24.0124C65.1449 24.4741 65.8404 24.7335 66.5656 24.7335H108.092ZM27.3109 123.815C27.3109 123.162 27.599 122.536 28.1118 122.074C28.6246 121.612 29.3201 121.353 30.0453 121.353H40.475C41.2001 121.353 41.8953 121.613 42.408 122.074C42.9207 122.536 43.209 123.162 43.2094 123.815V144.98C43.2094 145.633 42.9213 146.259 42.4085 146.721C41.8957 147.182 41.2002 147.442 40.475 147.442H30.0453C29.6862 147.442 29.3305 147.378 28.9987 147.255C28.6668 147.131 28.3653 146.95 28.1114 146.721C27.8574 146.493 27.656 146.221 27.5187 145.922C27.3813 145.624 27.3107 145.303 27.3109 144.98V123.815ZM32.7797 142.525H37.7406V126.277H32.7797V142.525ZM63.0141 106.49C63.7384 106.49 64.4332 106.749 64.9459 107.21C65.4586 107.671 65.7472 108.296 65.7484 108.948V144.983C65.7486 145.306 65.6781 145.626 65.5407 145.925C65.4034 146.224 65.202 146.495 64.948 146.724C64.6941 146.953 64.3925 147.134 64.0607 147.258C63.7289 147.381 63.3732 147.445 63.0141 147.445H52.5844C51.8592 147.445 51.1637 147.185 50.6509 146.724C50.1381 146.262 49.85 145.636 49.85 144.983V108.948C49.8504 108.295 50.1386 107.669 50.6513 107.208C51.164 106.746 51.8593 106.486 52.5844 106.486L63.0141 106.49ZM60.2797 111.414H55.3187V142.525H60.2797V111.414ZM85.5547 112.23C86.2799 112.23 86.9754 112.489 87.4882 112.951C88.001 113.413 88.2891 114.039 88.2891 114.692V144.987C88.2891 145.64 88.001 146.266 87.4882 146.728C86.9754 147.189 86.2799 147.449 85.5547 147.449H75.1234C74.3982 147.449 73.7027 147.189 73.1899 146.728C72.6771 146.266 72.3891 145.64 72.3891 144.987V114.685C72.3891 114.032 72.6771 113.406 73.1899 112.944C73.7027 112.482 74.3982 112.223 75.1234 112.223L85.5547 112.23ZM82.8203 117.154H77.8578V142.525H82.8203V117.154ZM110.827 98.6882V144.98C110.827 145.303 110.756 145.624 110.619 145.922C110.481 146.221 110.28 146.493 110.026 146.721C109.772 146.95 109.471 147.131 109.139 147.255C108.807 147.378 108.451 147.442 108.092 147.442H97.6641C97.3049 147.442 96.9493 147.378 96.6174 147.255C96.2856 147.131 95.9841 146.95 95.7301 146.721C95.4762 146.493 95.2748 146.221 95.1374 145.922C95.0001 145.624 94.9295 145.303 94.9297 144.98V98.6882C94.9297 98.0353 95.2178 97.4091 95.7306 96.9474C96.2434 96.4858 96.9389 96.2264 97.6641 96.2264H108.092C108.817 96.2264 109.513 96.4858 110.026 96.9474C110.538 97.4091 110.827 98.0353 110.827 98.6882ZM105.358 101.15H100.398V142.518H105.358V101.15Z" fill="url(#paint0_linear_135_839)"/>
<defs>
<linearGradient id="paint0_linear_135_839" x1="11.5" y1="22" x2="167.5" y2="172" gradientUnits="userSpaceOnUse">
<stop stop-color="white"/>
<stop offset="1" stop-color="#002EFF"/>
</linearGradient>
</defs>
</svg>
