<svg width="100" height="100" viewBox="0 0 100 100" fill="none" xmlns="http://www.w3.org/2000/svg">
<g clip-path="url(#clip0_160_1117)">
<path d="M95.4348 64.9707C94.0557 64.2309 92.5015 63.88 90.9384 63.9555C89.3752 64.031 87.862 64.5301 86.5607 65.3994L72.6115 74.699C72.1654 70.2676 68.4143 66.7969 63.8672 66.7969H49.2188L47.3078 65.3637C43.5021 62.5094 38.7865 60.9375 34.0293 60.9375C30.0182 60.9378 26.0826 62.0279 22.643 64.0912L21.8748 64.5521V61.9141C21.8748 60.2961 20.5631 58.9844 18.9451 58.9844H2.92969C1.31172 58.9844 0 60.2961 0 61.9141V97.0703C0 98.6883 1.31172 100 2.92969 100H18.9453C20.5633 100 21.875 98.6883 21.875 97.0703V96.0938H68.0191C71.0127 96.0938 73.8961 95.1932 76.357 93.4891L96.2758 79.699C97.4248 78.9036 98.3638 77.8415 99.0124 76.6037C99.661 75.3659 99.9999 73.9893 100 72.5918C100.002 71.0269 99.5775 69.4911 98.7734 68.1487C97.9692 66.8062 96.8152 65.7077 95.4348 64.9707ZM16.0156 94.1406H5.85938V64.8438H16.0156V94.1406ZM92.9408 74.8814L73.0217 88.6715C71.5531 89.6914 69.8072 90.2369 68.0191 90.2344H21.875V71.3854L25.6578 69.1156C28.1867 67.5986 31.0803 66.7971 34.0293 66.7969C37.5268 66.7969 40.9939 67.9525 43.792 70.0512L46.4844 72.0703C46.9916 72.4506 47.6084 72.6562 48.2422 72.6562H63.8672C65.4826 72.6562 66.7969 73.9705 66.7969 75.5859C66.7969 77.2014 65.4826 78.5156 63.8672 78.5156H42.3828C40.7648 78.5156 39.4531 79.8273 39.4531 81.4453C39.4531 83.0633 40.7648 84.375 42.3828 84.375H65.408C67.5291 84.377 69.603 83.7491 71.3668 82.5709L89.8111 70.2748C91.0633 69.4397 92.2275 69.8998 92.6701 70.1365C93.1123 70.3732 94.1408 71.0863 94.1408 72.5918C94.1407 73.042 94.0315 73.4855 93.8225 73.8843C93.6135 74.283 93.311 74.6252 92.9408 74.8814ZM44.3359 48.8281C56.4338 48.8281 66.5027 39.9824 68.4195 28.4195C70.8736 31.1699 72.8578 34.325 74.2582 37.7281H71.6797C71.1228 37.7281 70.5775 37.8868 70.1077 38.1856C69.6378 38.4844 69.2628 38.9109 69.0266 39.4152C68.7904 39.9195 68.7028 40.4806 68.7741 41.0329C68.8454 41.5851 69.0726 42.1056 69.4291 42.5334L82.1244 57.7678C82.3993 58.0977 82.7434 58.3632 83.1324 58.5454C83.5213 58.7276 83.9455 58.8221 84.375 58.8221C84.8045 58.8221 85.2287 58.7276 85.6176 58.5454C86.0066 58.3632 86.3507 58.0977 86.6256 57.7678L99.3209 42.5334C99.6773 42.1056 99.9044 41.5851 99.9757 41.0329C100.047 40.4807 99.9593 39.9196 99.7232 39.4153C99.487 38.9111 99.112 38.4846 98.6422 38.1858C98.1724 37.887 97.6271 37.7282 97.0703 37.7281H92.8059C90.2166 27.5016 84.3789 18.2469 76.193 11.4678C67.2635 4.07266 55.9498 0 44.3359 0C30.874 0 19.9219 10.9521 19.9219 24.4141C19.9219 37.876 30.874 48.8281 44.3359 48.8281ZM64.6078 10.7932C67.4022 12.236 70.0334 13.9752 72.4559 15.9807C80.235 22.4229 85.6119 31.3924 87.5963 41.2369C87.73 41.9001 88.089 42.4965 88.6125 42.925C89.136 43.3535 89.7917 43.5877 90.4682 43.5877H90.8154L84.375 51.3158L77.9346 43.5875H78.3486C78.7994 43.5875 79.2441 43.4835 79.6481 43.2836C80.0521 43.0836 80.4046 42.7931 80.678 42.4347C80.9514 42.0763 81.1384 41.6597 81.2245 41.2172C81.3105 40.7747 81.2933 40.3183 81.1742 39.8836C79.0803 32.2414 74.5666 25.3385 68.4062 20.3197L68.4045 20.3184C67.8267 16.9153 66.5298 13.6746 64.6004 10.8125L64.6078 10.7932ZM44.3359 5.85938C54.567 5.85938 62.8906 14.183 62.8906 24.4141C62.8906 34.6451 54.567 42.9688 44.3359 42.9688C34.1049 42.9688 25.7812 34.6451 25.7812 24.4141C25.7812 14.183 34.1049 5.85938 44.3359 5.85938Z" fill="black"/>
<path d="M44.3359 27.3438C45.4129 27.3438 46.2891 28.2199 46.2891 29.2969C46.2891 30.3738 45.4129 31.25 44.3359 31.25C43.4109 31.25 42.6062 30.5941 42.4227 29.6904C42.1008 28.1049 40.5545 27.0809 38.9684 27.4023C37.3826 27.7244 36.3584 29.2709 36.6803 30.8566C37.2117 33.473 39.0387 35.5709 41.4061 36.535V37.1094C41.4061 38.7273 42.7178 40.0391 44.3357 40.0391C45.9537 40.0391 47.2654 38.7273 47.2654 37.1094V36.5373C50.1254 35.3758 52.1482 32.5689 52.1482 29.2969C52.1482 24.9891 48.6436 21.4844 44.3357 21.4844C43.2588 21.4844 42.3826 20.6082 42.3826 19.5312C42.3826 18.4543 43.2588 17.5781 44.3357 17.5781C45.2607 17.5781 46.0654 18.234 46.249 19.1377C46.5709 20.7232 48.1184 21.7477 49.7033 21.4258C51.2889 21.1037 52.3133 19.5572 51.9914 17.9715C51.4602 15.3551 49.6332 13.2574 47.2656 12.2934V11.7188C47.2656 10.1008 45.9539 8.78906 44.3359 8.78906C42.718 8.78906 41.4062 10.1008 41.4062 11.7188V12.2908C38.5463 13.4523 36.5234 16.2592 36.5234 19.5312C36.5234 23.8391 40.0281 27.3438 44.3359 27.3438Z" fill="#0000FB"/>
</g>
<defs>
<clipPath id="clip0_160_1117">
<rect width="100" height="100" fill="white"/>
</clipPath>
</defs>
</svg>
