<svg width="150" height="184" viewBox="0 0 150 184" fill="none" xmlns="http://www.w3.org/2000/svg">
<mask id="path-1-inside-1_135_757" fill="white">
<path d="M9.59848e-10 72.1641V62.3967C9.59855e-10 61.4846 0.347751 60.6098 0.966749 59.9648C1.58575 59.3198 2.42529 58.9575 3.30068 58.9575C4.17608 58.9575 5.01562 59.3198 5.63462 59.9648C6.25361 60.6098 6.60137 61.4846 6.60137 62.3967V72.1641C6.60137 73.0762 6.25361 73.951 5.63462 74.5959C5.01562 75.2409 4.17608 75.6033 3.30068 75.6033C2.42529 75.6033 1.58575 75.2409 0.966749 74.5959C0.347751 73.951 9.59848e-10 73.0762 9.59848e-10 72.1641ZM147.682 23.4039L75.9723 0.154783C75.3334 -0.0515944 74.6496 -0.0515944 74.0107 0.154783L2.31991 23.4039C1.64763 23.6219 1.05987 24.0581 0.642488 24.649C0.225108 25.2398 -1.69736e-05 25.9542 9.59848e-10 26.6878V44.4735C3.7855e-08 45.3856 0.347751 46.2604 0.966749 46.9054C1.58575 47.5503 2.42529 47.9127 3.30068 47.9127C4.17608 47.9127 5.01562 47.5503 5.63462 46.9054C6.25361 46.2604 6.60137 45.3856 6.60137 44.4735V29.2191L74.9915 7.04107L143.401 29.2191V85.6222C143.342 102.505 138.749 119.034 130.142 133.339C121.534 147.643 109.257 159.151 94.6975 166.562L74.9915 176.492L55.3062 166.566C41.3354 159.528 29.4465 148.691 20.8936 135.2C12.3407 121.708 7.44077 106.062 6.71076 89.9104C6.66924 88.9983 6.28167 88.1407 5.63331 87.5263C4.98496 86.9119 4.12893 86.591 3.25353 86.6343C2.37814 86.6776 1.55509 87.0814 0.965446 87.757C0.375807 88.4325 0.0678764 89.3245 0.109395 90.2366C0.894395 107.625 6.16872 124.469 15.376 138.994C24.5833 153.519 37.3821 165.185 52.4224 172.762L73.5468 183.414C73.9947 183.64 74.4861 183.758 74.984 183.758C75.4818 183.758 75.9732 183.64 76.4212 183.414L97.5663 172.762C113.24 164.786 126.458 152.398 135.725 136.999C144.991 121.601 149.936 103.807 150 85.632V26.6878C150 25.9545 149.775 25.2404 149.358 24.6497C148.941 24.059 148.354 23.6225 147.682 23.4039ZM99.3204 63.0452V68.7445C101.942 68.799 104.439 69.9211 106.277 71.8706C108.114 73.82 109.146 76.4418 109.151 79.1742V111.357C109.148 114.128 108.09 116.783 106.21 118.742C104.33 120.701 101.781 121.802 99.1223 121.805H50.8777C48.2191 121.802 45.67 120.701 43.7899 118.742C41.9098 116.783 40.8522 114.128 40.8492 111.357V79.1702C40.8546 76.438 41.8865 73.8165 43.7238 71.8672C45.5612 69.9178 48.058 68.7955 50.6796 68.7406V63.0413C50.6513 59.6947 51.2595 56.3754 52.4691 53.275C53.6786 50.1746 55.4655 47.3545 57.7267 44.9776C59.9878 42.6007 62.6785 40.7141 65.6432 39.4265C68.6079 38.139 71.7881 37.476 75 37.476C78.2119 37.476 81.3921 38.139 84.3568 39.4265C87.3216 40.7141 90.0122 42.6007 92.2733 44.9776C94.5345 47.3545 96.3214 50.1746 97.531 53.275C98.7405 56.3754 99.3487 59.6947 99.3204 63.0413V63.0452ZM57.281 68.7209H92.719V63.0452C92.7432 60.6046 92.3027 58.1833 91.4231 55.9212C90.5435 53.6591 89.2421 51.6012 87.5944 49.8665C85.9466 48.1318 83.9851 46.7547 81.8233 45.8148C79.6616 44.875 77.3424 44.3911 75 44.3911C72.6576 44.3911 70.3384 44.875 68.1767 45.8148C66.0149 46.7547 64.0534 48.1318 62.4056 49.8665C60.7579 51.6012 59.4565 53.6591 58.5769 55.9212C57.6973 58.1833 57.2568 60.6046 57.281 63.0452V68.7209ZM99.1223 75.5993H50.8777C49.9691 75.6004 49.098 75.9769 48.4555 76.6464C47.813 77.3158 47.4516 78.2235 47.4506 79.1702V111.357C47.4516 112.304 47.8131 113.211 48.4556 113.88C49.0981 114.55 49.9692 114.926 50.8777 114.926H99.1223C100.031 114.926 100.902 114.55 101.544 113.88C102.187 113.211 102.548 112.304 102.549 111.357V79.1702C102.548 78.2235 102.187 77.3158 101.545 76.6464C100.902 75.9769 100.031 75.6004 99.1223 75.5993ZM74.4823 85.0385C73.0412 85.0333 71.6388 85.5242 70.493 86.4348C69.3472 87.3454 68.522 88.6248 68.1457 90.0742C67.7694 91.5237 67.863 93.062 68.412 94.4504C68.961 95.8387 69.9346 96.9993 71.1816 97.7518V102.742C71.1816 103.654 71.5293 104.529 72.1483 105.174C72.7673 105.818 73.6069 106.181 74.4823 106.181C75.3577 106.181 76.1972 105.818 76.8162 105.174C77.4352 104.529 77.783 103.654 77.783 102.742V97.7518C79.03 96.9993 80.0036 95.8387 80.5526 94.4504C81.1015 93.062 81.1951 91.5237 80.8188 90.0742C80.4425 88.6248 79.6173 87.3454 78.4715 86.4348C77.3257 85.5242 75.9233 85.0333 74.4823 85.0385Z"/>
</mask>
<path d="M9.59848e-10 72.1641V62.3967C9.59855e-10 61.4846 0.347751 60.6098 0.966749 59.9648C1.58575 59.3198 2.42529 58.9575 3.30068 58.9575C4.17608 58.9575 5.01562 59.3198 5.63462 59.9648C6.25361 60.6098 6.60137 61.4846 6.60137 62.3967V72.1641C6.60137 73.0762 6.25361 73.951 5.63462 74.5959C5.01562 75.2409 4.17608 75.6033 3.30068 75.6033C2.42529 75.6033 1.58575 75.2409 0.966749 74.5959C0.347751 73.951 9.59848e-10 73.0762 9.59848e-10 72.1641ZM147.682 23.4039L75.9723 0.154783C75.3334 -0.0515944 74.6496 -0.0515944 74.0107 0.154783L2.31991 23.4039C1.64763 23.6219 1.05987 24.0581 0.642488 24.649C0.225108 25.2398 -1.69736e-05 25.9542 9.59848e-10 26.6878V44.4735C3.7855e-08 45.3856 0.347751 46.2604 0.966749 46.9054C1.58575 47.5503 2.42529 47.9127 3.30068 47.9127C4.17608 47.9127 5.01562 47.5503 5.63462 46.9054C6.25361 46.2604 6.60137 45.3856 6.60137 44.4735V29.2191L74.9915 7.04107L143.401 29.2191V85.6222C143.342 102.505 138.749 119.034 130.142 133.339C121.534 147.643 109.257 159.151 94.6975 166.562L74.9915 176.492L55.3062 166.566C41.3354 159.528 29.4465 148.691 20.8936 135.2C12.3407 121.708 7.44077 106.062 6.71076 89.9104C6.66924 88.9983 6.28167 88.1407 5.63331 87.5263C4.98496 86.9119 4.12893 86.591 3.25353 86.6343C2.37814 86.6776 1.55509 87.0814 0.965446 87.757C0.375807 88.4325 0.0678764 89.3245 0.109395 90.2366C0.894395 107.625 6.16872 124.469 15.376 138.994C24.5833 153.519 37.3821 165.185 52.4224 172.762L73.5468 183.414C73.9947 183.64 74.4861 183.758 74.984 183.758C75.4818 183.758 75.9732 183.64 76.4212 183.414L97.5663 172.762C113.24 164.786 126.458 152.398 135.725 136.999C144.991 121.601 149.936 103.807 150 85.632V26.6878C150 25.9545 149.775 25.2404 149.358 24.6497C148.941 24.059 148.354 23.6225 147.682 23.4039ZM99.3204 63.0452V68.7445C101.942 68.799 104.439 69.9211 106.277 71.8706C108.114 73.82 109.146 76.4418 109.151 79.1742V111.357C109.148 114.128 108.09 116.783 106.21 118.742C104.33 120.701 101.781 121.802 99.1223 121.805H50.8777C48.2191 121.802 45.67 120.701 43.7899 118.742C41.9098 116.783 40.8522 114.128 40.8492 111.357V79.1702C40.8546 76.438 41.8865 73.8165 43.7238 71.8672C45.5612 69.9178 48.058 68.7955 50.6796 68.7406V63.0413C50.6513 59.6947 51.2595 56.3754 52.4691 53.275C53.6786 50.1746 55.4655 47.3545 57.7267 44.9776C59.9878 42.6007 62.6785 40.7141 65.6432 39.4265C68.6079 38.139 71.7881 37.476 75 37.476C78.2119 37.476 81.3921 38.139 84.3568 39.4265C87.3216 40.7141 90.0122 42.6007 92.2733 44.9776C94.5345 47.3545 96.3214 50.1746 97.531 53.275C98.7405 56.3754 99.3487 59.6947 99.3204 63.0413V63.0452ZM57.281 68.7209H92.719V63.0452C92.7432 60.6046 92.3027 58.1833 91.4231 55.9212C90.5435 53.6591 89.2421 51.6012 87.5944 49.8665C85.9466 48.1318 83.9851 46.7547 81.8233 45.8148C79.6616 44.875 77.3424 44.3911 75 44.3911C72.6576 44.3911 70.3384 44.875 68.1767 45.8148C66.0149 46.7547 64.0534 48.1318 62.4056 49.8665C60.7579 51.6012 59.4565 53.6591 58.5769 55.9212C57.6973 58.1833 57.2568 60.6046 57.281 63.0452V68.7209ZM99.1223 75.5993H50.8777C49.9691 75.6004 49.098 75.9769 48.4555 76.6464C47.813 77.3158 47.4516 78.2235 47.4506 79.1702V111.357C47.4516 112.304 47.8131 113.211 48.4556 113.88C49.0981 114.55 49.9692 114.926 50.8777 114.926H99.1223C100.031 114.926 100.902 114.55 101.544 113.88C102.187 113.211 102.548 112.304 102.549 111.357V79.1702C102.548 78.2235 102.187 77.3158 101.545 76.6464C100.902 75.9769 100.031 75.6004 99.1223 75.5993ZM74.4823 85.0385C73.0412 85.0333 71.6388 85.5242 70.493 86.4348C69.3472 87.3454 68.522 88.6248 68.1457 90.0742C67.7694 91.5237 67.863 93.062 68.412 94.4504C68.961 95.8387 69.9346 96.9993 71.1816 97.7518V102.742C71.1816 103.654 71.5293 104.529 72.1483 105.174C72.7673 105.818 73.6069 106.181 74.4823 106.181C75.3577 106.181 76.1972 105.818 76.8162 105.174C77.4352 104.529 77.783 103.654 77.783 102.742V97.7518C79.03 96.9993 80.0036 95.8387 80.5526 94.4504C81.1015 93.062 81.1951 91.5237 80.8188 90.0742C80.4425 88.6248 79.6173 87.3454 78.4715 86.4348C77.3257 85.5242 75.9233 85.0333 74.4823 85.0385Z" fill="#0000FB" stroke="#0000FB" stroke-width="8" mask="url(#path-1-inside-1_135_757)"/>
</svg>
