<svg width="120" height="141" viewBox="0 0 120 141" fill="none" xmlns="http://www.w3.org/2000/svg">
<path d="M7.67878e-10 55.1006V47.6428C7.67884e-10 46.9463 0.2782 46.2784 0.773399 45.7859C1.2686 45.2935 1.94023 45.0168 2.64055 45.0168C3.34086 45.0168 4.0125 45.2935 4.50769 45.7859C5.00289 46.2784 5.28109 46.9463 5.28109 47.6428V55.1006C5.28109 55.7971 5.00289 56.465 4.50769 56.9575C4.0125 57.45 3.34086 57.7266 2.64055 57.7266C1.94023 57.7266 1.2686 57.45 0.773399 56.9575C0.2782 56.465 7.67878e-10 55.7971 7.67878e-10 55.1006ZM118.146 17.8699L60.7778 0.118184C60.2668 -0.0393947 59.7197 -0.0393947 59.2086 0.118184L1.85593 17.8699C1.3181 18.0364 0.847895 18.3695 0.513991 18.8206C0.180086 19.2718 -1.35789e-05 19.8172 7.67878e-10 20.3774V33.9576C3.0284e-08 34.654 0.2782 35.322 0.773399 35.8144C1.2686 36.3069 1.94023 36.5836 2.64055 36.5836C3.34086 36.5836 4.0125 36.3069 4.50769 35.8144C5.00289 35.322 5.28109 34.654 5.28109 33.9576V22.3101L59.9932 5.37619L114.72 22.3101V65.3766C114.673 78.2676 110.999 90.8883 104.113 101.81C97.2275 112.732 87.4053 121.519 75.758 127.178L59.9932 134.76L44.245 127.181C33.0684 121.807 23.5572 113.533 16.7149 103.231C9.87253 92.93 5.95261 80.9831 5.36861 68.6508C5.33539 67.9543 5.02534 67.2995 4.50665 66.8304C3.98797 66.3613 3.30314 66.1163 2.60282 66.1494C1.90251 66.1824 1.24407 66.4907 0.772357 67.0066C0.300645 67.5224 0.0543011 68.2034 0.0875161 68.8999C0.715516 82.1764 4.93498 95.0382 12.3008 106.128C19.6666 117.219 29.9057 126.127 41.9379 131.912L58.8374 140.045C59.1958 140.218 59.5889 140.308 59.9872 140.308C60.3855 140.308 60.7786 140.218 61.1369 140.045L78.053 131.912C90.5921 125.822 101.167 116.363 108.58 104.605C115.993 92.8479 119.949 79.2616 120 65.3841V20.3774C120 19.8175 119.82 19.2723 119.486 18.8212C119.153 18.3702 118.683 18.0369 118.146 17.8699ZM79.4563 48.138V52.4896C81.5537 52.5312 83.5514 53.388 85.0214 54.8766C86.4913 56.3651 87.3167 58.3669 87.3206 60.4532V85.0266C87.3182 87.1417 86.4721 89.1696 84.9681 90.6651C83.464 92.1606 81.4248 93.0016 79.2979 93.0036H40.7021C38.5752 93.0016 36.536 92.1606 35.0319 90.6651C33.5279 89.1696 32.6818 87.1417 32.6794 85.0266V60.4502C32.6837 58.364 33.5092 56.3624 34.979 54.874C36.4489 53.3855 38.4464 52.5286 40.5437 52.4866V48.135C40.5211 45.5797 41.0076 43.0452 41.9752 40.6779C42.9429 38.3107 44.3724 36.1574 46.1813 34.3425C47.9903 32.5277 50.1428 31.0871 52.5146 30.104C54.8863 29.1209 57.4304 28.6147 60 28.6147C62.5696 28.6147 65.1137 29.1209 67.4855 30.104C69.8572 31.0871 72.0097 32.5277 73.8187 34.3425C75.6276 36.1574 77.0571 38.3107 78.0248 40.6779C78.9924 43.0452 79.4789 45.5797 79.4563 48.135V48.138ZM45.8248 52.4716H74.1752V48.138C74.1945 46.2745 73.8422 44.4257 73.1385 42.6985C72.4348 40.9713 71.3937 39.3999 70.0755 38.0754C68.7573 36.7509 67.1881 35.6994 65.4587 34.9818C63.7293 34.2642 61.8739 33.8947 60 33.8947C58.1261 33.8947 56.2708 34.2642 54.5413 34.9818C52.8119 35.6994 51.2427 36.7509 49.9245 38.0754C48.6063 39.3999 47.5652 40.9713 46.8615 42.6985C46.1578 44.4257 45.8055 46.2745 45.8248 48.138V52.4716ZM79.2979 57.7236H40.7021C39.9753 57.7244 39.2784 58.0119 38.7644 58.5231C38.2504 59.0343 37.9613 59.7273 37.9605 60.4502V85.0266C37.9613 85.7493 38.2504 86.4422 38.7645 86.9531C39.2785 87.464 39.9754 87.7512 40.7021 87.7516H79.2979C80.0246 87.7512 80.7215 87.464 81.2355 86.9531C81.7496 86.4422 82.0387 85.7493 82.0395 85.0266V60.4502C82.0387 59.7273 81.7496 59.0343 81.2356 58.5231C80.7216 58.0119 80.0248 57.7244 79.2979 57.7236ZM59.5858 64.9309C58.433 64.9269 57.3111 65.3017 56.3944 65.997C55.4778 66.6923 54.8176 67.6692 54.5166 68.7759C54.2155 69.8826 54.2904 71.0572 54.7296 72.1173C55.1688 73.1773 55.9477 74.0635 56.9453 74.6381V78.448C56.9453 79.1445 57.2235 79.8124 57.7187 80.3049C58.2139 80.7974 58.8855 81.074 59.5858 81.074C60.2861 81.074 60.9578 80.7974 61.453 80.3049C61.9482 79.8124 62.2264 79.1445 62.2264 78.448V74.6381C63.224 74.0635 64.0029 73.1773 64.4421 72.1173C64.8812 71.0572 64.9561 69.8826 64.6551 68.7759C64.354 67.6692 63.6939 66.6923 62.7772 65.997C61.8606 65.3017 60.7387 64.9269 59.5858 64.9309Z" fill="url(#paint0_linear_135_848)"/>
<defs>
<linearGradient id="paint0_linear_135_848" x1="116.769" y1="134.308" x2="11.4135" y2="8.05048" gradientUnits="userSpaceOnUse">
<stop stop-color="#07077D"/>
<stop offset="1" stop-color="white"/>
</linearGradient>
</defs>
</svg>
