<svg width="100" height="100" viewBox="0 0 100 100" fill="none" xmlns="http://www.w3.org/2000/svg">
<path d="M25.7465 16.3235C25.7465 10.9987 21.4162 6.66846 16.0915 6.66846C10.7668 6.66846 6.43652 10.9987 6.43652 16.3235C6.43652 21.6482 10.7668 25.9784 16.0915 25.9784C21.4162 25.9784 25.7465 21.6482 25.7465 16.3235ZM9.65485 16.3235C9.65485 12.7736 12.5417 9.88679 16.0915 9.88679C19.6413 9.88679 22.5282 12.7736 22.5282 16.3235C22.5282 19.8733 19.6413 22.7601 16.0915 22.7601C12.5417 22.7601 9.65485 19.8733 9.65485 16.3235ZM86.6888 11.0341L88.9642 8.75876L91.2396 11.0341L88.9642 13.3095L86.6888 11.0341ZM82.1365 15.5832L84.4119 13.3079L86.6872 15.5832L84.4119 17.8586L82.1365 15.5832ZM77.7016 20.0197L79.8628 17.8602L82.1381 20.1356L79.9754 22.2935L77.7016 20.0197Z" fill="#0000FB"/>
<path d="M94.9408 67.8167H86.0147C88.7115 62.3057 90.1134 56.2513 90.1133 50.1159C90.1133 41.9413 87.6738 34.1545 83.0957 27.4652C84.3121 26.617 85.4978 25.7255 86.6504 24.7924L96.5499 34.6904L100 31.2403L95.1725 16.7562L95.6874 16.2413C96.474 15.4603 97.0975 14.5308 97.5218 13.5067C97.9461 12.4827 98.1628 11.3846 98.1591 10.2761C98.1561 8.0396 97.2662 5.89555 95.6846 4.31424C94.103 2.73292 91.9588 1.84344 89.7223 1.84089C88.6142 1.83815 87.5166 2.05487 86.4928 2.47855C85.469 2.90222 84.5392 3.52446 83.7571 4.30935L83.2389 4.8275L68.758 0L65.3096 3.45005L75.2092 13.3496C74.2756 14.5013 73.3841 15.6864 72.5364 16.9027C65.872 12.3206 57.9717 9.87367 49.8841 9.88671C43.6647 9.88671 37.5354 11.3301 32.0079 14.0722C30.9073 6.26448 24.1986 0.23172 16.0917 0.23172C7.21872 0.23172 5.60323e-06 7.45044 5.60323e-06 16.3234V16.7659C-0.00264936 19.9433 0.938248 23.0499 2.7034 25.6919L11.3398 38.6457C10.2265 42.3675 9.65902 46.2311 9.655 50.1159C9.655 55.13 10.5642 59.9897 12.3471 64.5984H11.2642C8.6026 64.5984 6.43667 66.7643 6.43667 69.4258C6.43667 71.521 7.78676 73.2911 9.655 73.9573V77.4717H5.60323e-06V82.8608C5.60323e-06 92.3114 7.6886 100 17.1392 100H34.9511C41.5631 100 47.5396 96.1412 50.3685 90.3321C55.158 90.2864 59.9002 89.3788 64.3682 87.6529V95.1725C64.3682 97.8341 66.5342 100 69.1957 100H94.9424C97.604 100 99.7699 97.8341 99.7699 95.1725V72.6442C99.7678 71.3642 99.2582 70.1373 98.353 69.2324C97.4478 68.3275 96.2207 67.8184 94.9408 67.8167ZM77.24 71.035H86.895V74.2533H77.24V71.035ZM69.1941 67.8167H64.3892C65.3209 62.9506 65.8728 57.5116 65.9597 51.725H86.8419C86.5998 57.3596 85.0712 62.8641 82.3732 67.8167H69.1941ZM51.4434 86.8016L51.4933 83.9083H44.4419L39.3103 73.6435C40.3491 73.0773 41.1435 72.1489 41.5422 71.035H60.3872C58.2116 79.702 54.8243 85.4306 51.4434 86.8016ZM41.5422 67.8167C41.2733 67.0598 40.8198 66.382 40.2226 65.8447C39.6255 65.3074 38.9037 64.9277 38.1227 64.74C37.4592 60.4322 37.0984 56.0832 37.043 51.725H62.7414C62.6497 57.6741 62.0527 63.097 61.1097 67.8167H41.5422ZM12.9345 48.5067C13.0359 46.138 13.3384 43.7934 13.8839 41.5036C14.8957 42.0566 16.0779 42.2105 17.1976 41.9349C18.3173 41.6594 19.2931 40.9745 19.9327 40.0151L24.9984 32.415H35.3791C34.4474 37.2812 33.8955 42.7201 33.8086 48.5067H12.9345ZM38.6683 32.415H61.1209C62.0961 37.3359 62.64 42.8135 62.7285 48.5067H37.0414C37.1347 42.5592 37.7237 37.1315 38.6683 32.415ZM49.8841 13.105C52.7436 13.105 55.6852 16.3427 58.0458 21.978L56.8229 23.201L58.9212 24.2501C59.4683 25.803 59.9656 27.4491 60.4016 29.1967H39.3908C41.9059 19.2022 46.0318 13.105 49.8841 13.105ZM67.7137 25.0483L62.2554 22.3191L63.2515 21.3247L68.9061 22.7375C68.4909 23.497 68.0983 24.2694 67.7137 25.0483ZM66.362 27.9705L66.3218 28.0574C66.1641 28.4227 66.0804 28.8073 66.0305 29.1967H63.7037C63.47 28.2108 63.213 27.2305 62.9329 26.2568L66.362 27.9705ZM86.8322 48.5067H65.9468C65.8615 42.8456 65.3321 37.3825 64.3892 32.415H66.9381C67.5181 33.145 68.322 33.6641 69.226 33.8924C70.13 34.1206 71.0839 34.0454 71.941 33.6782L72.0295 33.638L76.799 43.1771L82.2396 37.7349L80.1574 29.4043C80.2443 29.3512 80.3279 29.2933 80.4148 29.2385C84.3277 34.9278 86.5524 41.6074 86.8322 48.5067ZM77.2625 31.0939L78.6753 36.7485L77.6793 37.743L74.9501 32.2847C75.7306 31.9017 76.503 31.5091 77.2625 31.0939ZM96.0865 29.6762L89.1059 22.6957C89.9154 21.9667 90.7103 21.2201 91.4827 20.4461L92.6268 19.3019L96.0865 29.6762ZM89.7223 5.05922C91.1056 5.06049 92.432 5.61049 93.4103 6.58853C94.3887 7.56657 94.9391 8.89277 94.9408 10.2761C94.9408 11.6713 94.3985 12.9811 93.4121 13.966L89.2073 18.1707C83.8882 23.4984 77.5978 27.7579 70.6762 30.719C69.9955 31.0054 69.1941 30.4744 69.1941 29.7454C69.1942 29.6011 69.2232 29.4583 69.2794 29.3254C72.2406 22.4029 76.5001 16.1115 81.8277 10.7911L86.0308 6.58632C86.5147 6.10038 87.09 5.71671 87.7236 5.45433C88.3572 5.19195 89.0365 5.05766 89.7223 5.05922ZM70.3254 3.91349L80.6981 7.37159L79.5539 8.51731C78.7799 9.29132 78.0333 10.0863 77.3043 10.8941L70.3254 3.91349ZM70.5941 19.8426L62.2651 17.7588L60.4982 19.5256C59.441 17.2293 58.2711 15.3112 57.0111 13.8131C61.9425 14.7711 66.6233 16.7355 70.7615 19.5835C70.7051 19.6721 70.6472 19.7557 70.5941 19.8426ZM32.1173 17.6606C35.4751 15.8178 39.0995 14.5094 42.8601 13.7825C40.0216 17.1457 37.6674 22.5122 36.0695 29.1967H27.1434L29.4799 25.6919C31.081 23.2895 31.958 20.5265 32.1173 17.6606ZM3.21834 16.7659V16.3234C3.21834 9.22535 8.99363 3.45005 16.0917 3.45005C23.1897 3.45005 28.965 9.22535 28.965 16.3234V16.7659C28.9671 19.308 28.2144 21.7936 26.8023 23.9074L17.2535 38.229C16.7337 39.0078 15.448 39.0078 14.9282 38.229L5.37945 23.9074C3.96821 21.7932 3.21609 19.3078 3.21834 16.7659ZM12.9152 51.725H33.8247C33.8923 56.176 34.235 60.4885 34.8497 64.5984H15.8278C14.0859 60.5188 13.0991 56.157 12.9152 51.725ZM11.2642 67.8167H37.0108C37.4251 67.8352 37.8164 68.0129 38.103 68.3126C38.3896 68.6124 38.5496 69.0111 38.5496 69.4258C38.5496 69.8406 38.3896 70.2393 38.103 70.5391C37.8164 70.8389 37.4251 71.0165 37.0108 71.035H11.2642C10.8498 71.0165 10.4586 70.8389 10.172 70.5391C9.88535 70.2393 9.72537 69.8406 9.72537 69.4258C9.72537 69.0111 9.88535 68.6124 10.172 68.3126C10.4586 68.0129 10.8498 67.8352 11.2642 67.8167ZM12.8733 74.2533H36.0164L40.8438 83.9083H18.6953L15.477 77.4717H12.8733V74.2533ZM34.9511 96.7817H17.1392C9.46351 96.7817 3.21834 90.5365 3.21834 82.8608V80.69H13.488L16.7064 87.1267H48.2026C46.3633 92.8344 40.979 96.7817 34.9511 96.7817ZM56.9065 86.4508C59.7451 83.0877 62.1009 77.7195 63.6988 71.035H64.6627C64.4721 71.5504 64.372 72.0947 64.3666 72.6442V84.1706C61.9529 85.2005 59.4619 85.9616 56.9065 86.4508ZM96.5499 95.1725C96.5499 96.0608 95.8274 96.7817 94.9408 96.7817H69.1941C68.3075 96.7817 67.585 96.0608 67.585 95.1725V72.6442C67.585 71.7559 68.3075 71.035 69.1941 71.035H74.0216V77.4717H90.1133V71.035H94.9408C95.8274 71.035 96.5499 71.7559 96.5499 72.6442V95.1725Z" fill="black"/>
<path d="M90.1133 90.345H93.3317V93.5634H90.1133V90.345ZM83.6767 90.345H86.895V93.5634H83.6767V90.345ZM25.7467 77.4717H28.9651V80.69H25.7467V77.4717ZM32.1834 77.4717H35.4017V80.69H32.1834V77.4717ZM19.3101 77.4717H22.5284V80.69H19.3101V77.4717ZM41.8384 54.9434H45.0567V58.1617H41.8384V54.9434ZM54.7117 54.9434H57.93V58.1617H54.7117V54.9434ZM48.275 54.9434H51.4934V58.1617H48.275V54.9434ZM54.7117 42.0701H57.93V45.2884H54.7117V42.0701ZM48.275 42.0701H51.4934V45.2884H48.275V42.0701ZM41.8384 42.0701H45.0567V45.2884H41.8384V42.0701Z" fill="black"/>
</svg>
