<svg width="200" height="200" viewBox="0 0 200 200" fill="none" xmlns="http://www.w3.org/2000/svg">
<path d="M38.6095 38.6095C31.6695 45.5498 26.9433 54.3921 25.0286 64.0184C23.1139 73.6446 24.0967 83.6225 27.8528 92.6902C31.6088 101.758 37.9694 109.508 46.1301 114.961C54.2909 120.414 63.8853 123.324 73.7002 123.324C83.515 123.324 93.1095 120.414 101.27 114.961C109.431 109.508 115.792 101.758 119.548 92.6902C123.304 83.6225 124.286 73.6446 122.372 64.0184C120.457 54.3921 115.731 45.5498 108.791 38.6095C99.4762 29.318 86.8567 24.1001 73.7002 24.1001C60.5437 24.1001 47.9242 29.318 38.6095 38.6095ZM117.858 73.7001C117.859 83.9172 114.317 93.8183 107.836 101.717C101.354 109.615 92.3352 115.021 82.3146 117.015C72.294 119.009 61.8921 117.466 52.8814 112.65C43.8706 107.835 36.8084 100.043 32.8982 90.6042C28.988 81.165 28.4718 70.6621 31.4374 60.8849C34.403 51.1078 40.6669 42.6614 49.162 36.985C57.657 31.3087 67.8575 28.7535 78.0253 29.7548C88.1931 30.7562 97.6991 35.2522 104.924 42.4767C109.037 46.5673 112.298 51.4332 114.519 56.7928C116.739 62.1523 117.874 67.899 117.858 73.7001ZM142.452 159.269C142.713 159.521 142.921 159.823 143.064 160.157C143.208 160.49 143.283 160.849 143.286 161.212C143.289 161.575 143.22 161.935 143.082 162.271C142.945 162.607 142.742 162.913 142.485 163.169C142.228 163.426 141.923 163.629 141.587 163.766C141.251 163.904 140.89 163.973 140.527 163.97C140.164 163.966 139.806 163.891 139.472 163.747C139.138 163.604 138.837 163.396 138.585 163.135L133.616 158.166C133.118 157.65 132.842 156.96 132.848 156.243C132.854 155.526 133.141 154.84 133.648 154.333C134.155 153.826 134.841 153.538 135.558 153.532C136.275 153.525 136.966 153.801 137.481 154.299L142.452 159.269ZM187.794 187.794C184.537 191.046 180.122 192.872 175.52 192.872C170.917 192.872 166.503 191.046 163.245 187.794L147.688 172.236C147.434 171.982 147.233 171.681 147.095 171.349C146.958 171.018 146.887 170.662 146.887 170.303C146.887 169.944 146.958 169.589 147.095 169.257C147.233 168.926 147.434 168.624 147.688 168.37C147.941 168.117 148.243 167.915 148.574 167.778C148.906 167.641 149.262 167.57 149.62 167.57C149.979 167.57 150.335 167.641 150.667 167.778C150.998 167.915 151.299 168.117 151.553 168.37L167.111 183.928C169.349 186.12 172.362 187.341 175.494 187.324C178.627 187.308 181.626 186.057 183.841 183.841C186.057 181.626 187.308 178.627 187.324 175.494C187.341 172.362 186.12 169.349 183.928 167.111L128.419 111.603C123.883 118.185 118.185 123.883 111.603 128.419L127.917 144.735C128.185 144.985 128.4 145.287 128.549 145.622C128.698 145.957 128.777 146.319 128.783 146.686C128.789 147.053 128.721 147.417 128.584 147.757C128.446 148.097 128.241 148.405 127.982 148.665C127.722 148.924 127.413 149.128 127.073 149.265C126.733 149.402 126.368 149.47 126.002 149.463C125.635 149.456 125.273 149.376 124.938 149.227C124.603 149.077 124.302 148.862 124.052 148.594L106.864 131.406C97.2269 136.944 86.3565 139.981 75.2444 140.24C64.1323 140.499 53.1322 137.972 43.2475 132.888C33.3627 127.805 24.9079 120.328 18.6543 111.139C12.4006 101.95 8.54705 91.3419 7.44516 80.2816C6.34327 69.2212 8.02808 58.061 12.3459 47.8188C16.6638 37.5766 23.4772 28.5785 32.1648 21.6452C40.8524 14.7118 51.1377 10.0639 62.0824 8.12535C73.0272 6.18681 84.2831 7.01935 94.8236 10.547C95.1642 10.6607 95.4791 10.8404 95.7503 11.0757C96.0215 11.3111 96.2437 11.5976 96.4041 11.9188C96.5646 12.24 96.6602 12.5897 96.6856 12.9479C96.7109 13.3061 96.6654 13.6658 96.5517 14.0064C96.4381 14.347 96.2584 14.6619 96.023 14.9331C95.7877 15.2043 95.5012 15.4265 95.18 15.5869C94.8587 15.7474 94.509 15.843 94.1508 15.8684C93.7926 15.8937 93.433 15.8482 93.0924 15.7345C78.3427 10.8092 62.2669 11.7192 48.1674 18.2778C34.0678 24.8363 23.0152 36.5452 17.2801 50.9993C11.5449 65.4533 11.5627 81.5549 17.3298 95.9962C23.0969 110.437 34.1753 122.122 48.2893 128.649C62.4033 135.177 78.4811 136.051 93.2198 131.093C107.959 126.135 120.239 115.721 127.539 101.991C134.838 88.2602 136.602 72.2556 132.469 57.2648C128.335 42.274 118.618 29.4352 105.313 21.3861C104.692 21.0104 104.246 20.4036 104.073 19.6992C103.9 18.9948 104.014 18.2504 104.389 17.6298C104.765 17.0093 105.372 16.5634 106.076 16.3902C106.781 16.217 107.525 16.3307 108.145 16.7064C123.028 25.7228 133.795 40.2026 138.144 57.0515C142.493 73.9004 140.079 91.7821 131.419 106.875L187.794 163.252C191.044 166.509 192.869 170.922 192.869 175.523C192.869 180.124 191.044 184.537 187.794 187.794ZM171.128 169.144L152.647 150.663C152.393 150.409 152.192 150.107 152.054 149.776C151.917 149.444 151.846 149.088 151.846 148.729C151.846 148.37 151.917 148.014 152.054 147.683C152.192 147.351 152.393 147.049 152.647 146.795C152.901 146.542 153.202 146.34 153.534 146.203C153.866 146.065 154.222 145.995 154.581 145.995C154.94 145.995 155.295 146.065 155.627 146.203C155.959 146.34 156.26 146.542 156.514 146.795L175 165.277C175.254 165.531 175.456 165.832 175.593 166.164C175.73 166.496 175.801 166.851 175.801 167.21C175.801 167.569 175.73 167.925 175.593 168.257C175.456 168.589 175.254 168.89 175 169.144C174.746 169.398 174.445 169.599 174.113 169.737C173.781 169.874 173.426 169.945 173.067 169.945C172.707 169.945 172.352 169.874 172.02 169.737C171.688 169.599 171.387 169.398 171.133 169.144H171.128ZM147.45 141.599C147.196 141.853 146.895 142.054 146.564 142.192C146.232 142.329 145.876 142.4 145.517 142.4C145.158 142.4 144.803 142.329 144.471 142.192C144.14 142.054 143.838 141.853 143.585 141.599L138.02 136.035C137.508 135.522 137.22 134.826 137.22 134.101C137.22 133.376 137.508 132.68 138.02 132.167C138.533 131.655 139.229 131.366 139.954 131.366C140.679 131.366 141.375 131.655 141.888 132.167L147.45 137.731C147.704 137.985 147.906 138.287 148.043 138.618C148.181 138.95 148.252 139.306 148.252 139.665C148.252 140.024 148.181 140.38 148.043 140.712C147.906 141.043 147.704 141.345 147.45 141.599ZM50.4377 47.6455C50.0785 47.6453 49.7229 47.7158 49.391 47.8532C49.0592 47.9905 48.7577 48.1919 48.5037 48.4459C48.2498 48.6998 48.0484 49.0014 47.911 49.3332C47.7737 49.665 47.7031 50.0207 47.7033 50.3798V96.9642C47.7033 97.6894 47.9914 98.3849 48.5042 98.8977C49.017 99.4105 49.7125 99.6986 50.4377 99.6986H97.0205C97.7457 99.6986 98.4412 99.4105 98.954 98.8977C99.4668 98.3849 99.7549 97.6894 99.7549 96.9642V50.3798C99.7551 50.0207 99.6845 49.665 99.5471 49.3332C99.4098 49.0014 99.2084 48.6998 98.9544 48.4459C98.7005 48.1919 98.399 47.9905 98.0671 47.8532C97.7353 47.7158 97.3796 47.6453 97.0205 47.6455H50.4377ZM64.7127 53.1142V61.9345H53.172V53.1142H64.7127ZM53.172 94.2298V67.4033H64.7127V72.7517C64.7127 73.4769 65.0008 74.1724 65.5136 74.6852C66.0263 75.198 66.7218 75.4861 67.447 75.4861H80.0096C80.7347 75.4861 81.4302 75.198 81.943 74.6852C82.4558 74.1724 82.7439 73.4769 82.7439 72.7517V67.4033H94.2861V94.2298H53.172ZM94.2861 61.9345H82.7439V53.1142H94.2861V61.9345ZM77.2752 53.1142V70.0173H70.1814V53.1142H77.2752Z" fill="url(#paint0_linear_135_852)"/>
<defs>
<linearGradient id="paint0_linear_135_852" x1="187.794" y1="187.794" x2="26.622" y2="26.622" gradientUnits="userSpaceOnUse">
<stop offset="0.00772201" stop-color="#0000FB"/>
<stop offset="1" stop-color="white"/>
</linearGradient>
</defs>
</svg>
