<svg xmlns="http://www.w3.org/2000/svg" version="1.1" xmlns:xlink="http://www.w3.org/1999/xlink" width="512" height="512" x="0" y="0" viewBox="0 0 512 512" style="enable-background:new 0 0 512 512" xml:space="preserve" class=""><g><path d="M214.329 31.321a8 8 0 0 1 3.076-6.305l19.618-15.321c3.48-2.723 8.51-2.103 11.229 1.381a7.999 7.999 0 0 1-1.381 11.229l-1.302 1.017h156.898a8 8 0 0 1 0 16H245.57l1.301 1.016a8 8 0 0 1-4.93 14.305 7.962 7.962 0 0 1-4.918-1.695l-19.618-15.32a8.008 8.008 0 0 1-3.076-6.307zM504 256c0 66.243-25.797 128.521-72.638 175.362S322.243 504 256 504s-128.521-25.797-175.362-72.638S8 322.243 8 256a8 8 0 0 1 8-8h480a8 8 0 0 1 8 8zm-343.679 8h-18.186c3.407 6.218 5.939 14.593 6.074 26.647.392 34.898 7.345 39.615 16.97 46.145 11.934 8.096 26.786 18.171 35.396 66.436 7.108 39.853 16.767 48.739 19.651 48.739l.037-.001c3.466-.092 13.158-11.478 16.576-39.109 2.789-22.546 14.578-36.455 25.979-49.905 12.087-14.261 23.504-27.731 25.36-52.184.23-3.047-1.471-6.541-5.058-10.386-18.434-19.761-72.714-35.004-80.258-35.024-6.306.504-11.534 1.113-15.74 1.604-11.866 1.383-19.541 2.26-26.801-2.962zm265.647 149.731c-.822.045-1.64.073-2.45.073-5.904 0-11.43-1.207-15.835-3.765-7.677-4.458-10.955-12.372-8.769-21.17 5.021-20.206 4.255-30.104 3.443-40.584-.381-4.919-.774-10.006-.644-16.211.438-20.724-1.977-33.971-7.175-39.371-4.034-4.191-10.464-4.502-21.48-4.69-9.621-.165-20.526-.351-32.225-4.643a8.047 8.047 0 0 1-1.632-.82c-9.17-6.014-15.812-12.119-20.161-18.55h-65.525c15.339 6.409 30.472 14.627 39.933 24.053 7.71 7.682 11.304 15.731 10.681 23.926-2.248 29.628-16.518 46.464-29.108 61.317-10.786 12.727-20.102 23.717-22.305 41.525-3.941 31.866-16.514 52.725-32.028 53.139-.168.005-.338.007-.505.007-16.137 0-28.031-20.828-35.362-61.93-7.424-41.622-18.688-49.263-28.626-56.004-14.196-9.631-23.535-18.954-23.985-59.206-.172-15.406-4.638-21.377-10.225-26.827H24.136C28.368 388.235 130.753 488 256 488c67.068 0 127.572-28.616 169.968-74.269zM487.864 264H340.873a82.58 82.58 0 0 0 6.322 4.651c8.873 3.068 17.646 3.219 26.139 3.363 11.747.201 23.895.409 32.734 9.593 8.605 8.94 12.196 24.609 11.644 50.805-.114 5.417.232 9.896.6 14.638.874 11.288 1.778 22.959-3.868 45.679-.535 2.152.005 2.736 1.276 3.474 5.61 3.258 20.297 1.865 29.772-6.491 25.323-35.783 40.781-79.018 42.372-125.712zM504 69.683v136.169c0 9.952-8.097 18.049-18.049 18.049H466.24C462.785 235.508 452.022 244 439.308 244s-23.477-8.491-26.932-20.099h-8.697C400.224 235.508 389.461 244 376.747 244s-23.477-8.491-26.932-20.099H247.184C243.73 235.508 232.967 244 220.253 244s-23.477-8.491-26.932-20.099h-9.552c-8.567 0-15.537-6.97-15.537-15.536v-58.066c0-2.573.472-4.885 1.485-7.274l19.935-46.937c3.149-7.414 10.643-12.204 19.089-12.204h56.351v-14.2c0-9.952 8.097-18.049 18.049-18.049h202.811C495.903 51.634 504 59.73 504 69.683zM232.351 215.9c0-6.671-5.427-12.098-12.098-12.098s-12.099 5.427-12.099 12.098 5.428 12.099 12.099 12.099 12.098-5.428 12.098-12.099zm14.833-8h17.908V99.883h-56.351c-2.077 0-3.708.919-4.362 2.459l-19.933 46.932c-.182.428-.214.641-.214 1.024V207.9h9.089c3.454-11.607 14.218-20.098 26.932-20.098s23.476 8.491 26.931 20.098zm141.663 8c0-6.671-5.428-12.098-12.099-12.098s-12.099 5.427-12.099 12.098 5.428 12.099 12.099 12.099 12.099-5.428 12.099-12.099zm62.56 0c0-6.671-5.428-12.098-12.099-12.098s-12.099 5.427-12.099 12.098 5.428 12.099 12.099 12.099 12.099-5.428 12.099-12.099zM488 69.683c0-1.11-.938-2.049-2.049-2.049h-202.81c-1.11 0-2.049.938-2.049 2.049V207.9h68.725c3.454-11.607 14.218-20.098 26.932-20.098s23.478 8.491 26.932 20.098h8.697c3.454-11.607 14.218-20.098 26.932-20.098s23.478 8.491 26.932 20.098h19.711c1.11 0 2.049-.938 2.049-2.049V69.683zm-236.341 87.005h-52.863a8 8 0 0 1-7.363-11.127l15.971-37.604a7.999 7.999 0 0 1 7.363-4.873h36.893a8 8 0 0 1 8 8v37.604a8.002 8.002 0 0 1-8.001 8zm-8-37.604H220.06l-9.176 21.604h32.774v-21.604zm195.65 89.969a6.844 6.844 0 0 0-6.847 6.848 6.844 6.844 0 0 0 6.847 6.847 6.844 6.844 0 0 0 6.848-6.847 6.845 6.845 0 0 0-6.848-6.848zm-219.057 0a6.845 6.845 0 0 0-6.848 6.848c0 3.784 3.063 6.847 6.848 6.847s6.848-3.063 6.848-6.847a6.844 6.844 0 0 0-6.848-6.848zm156.496 0a6.845 6.845 0 0 0-6.848 6.848c0 3.784 3.063 6.847 6.848 6.847s6.848-3.063 6.848-6.847a6.844 6.844 0 0 0-6.848-6.848zM307.562 77.792a8 8 0 0 0-8 8v83.853a8 8 0 0 0 16 0V85.792c0-4.418-3.583-8-8-8zm92.379 0a8 8 0 0 0-8 8v83.853a8 8 0 0 0 16 0V85.792a8 8 0 0 0-8-8zm-61.587 0a8 8 0 0 0-8 8v83.853a8 8 0 0 0 16 0V85.792a8 8 0 0 0-8-8zm92.38 0a8 8 0 0 0-8 8l.001 83.853a8 8 0 0 0 16 0l-.001-83.853a8 8 0 0 0-8-8zm-61.586 0a8 8 0 0 0-8 8v83.853a8 8 0 0 0 16 0V85.792a8 8 0 0 0-8-8zm92.38 0a8 8 0 0 0-8 8v83.853a8 8 0 0 0 16 0V85.792a8 8 0 0 0-8-8zM66.735 226.293C40.567 196.472 8 159.356 8 124.85c0-42.075 34.23-76.307 76.306-76.307s76.306 34.231 76.306 76.307c0 34.507-32.567 71.622-58.735 101.443-4.114 4.688-8 9.117-11.462 13.211a8.002 8.002 0 0 1-12.216 0c-3.464-4.094-7.349-8.523-11.464-13.211zM24 124.85c0 28.482 31.651 64.553 54.762 90.891 1.9 2.166 3.754 4.277 5.544 6.333 1.79-2.056 3.644-4.167 5.544-6.333 23.11-26.338 54.762-62.408 54.762-90.891 0-33.253-27.053-60.307-60.306-60.307S24 91.597 24 124.85zm60.306 48.381c-26.679 0-48.383-21.704-48.383-48.382 0-26.679 21.704-48.383 48.383-48.383s48.383 21.704 48.383 48.383c-.001 26.678-21.705 48.382-48.383 48.382zm0-16c17.856 0 32.383-14.526 32.383-32.382s-14.526-32.383-32.383-32.383-32.383 14.526-32.383 32.383c0 17.856 14.526 32.382 32.383 32.382z" fill="#0000fb" opacity="1" data-original="#000000" class=""></path></g></svg>