<svg width="104" height="105" viewBox="0 0 104 105" fill="none" xmlns="http://www.w3.org/2000/svg">
<path d="M43.9462 28.4304L46.4365 33.4477C47.2971 35.1815 49.5245 35.7018 51.0641 34.5286C52.4285 33.489 54.3794 33.7636 55.4035 35.1399L55.6655 35.4918C55.9962 35.9362 56.4405 36.2832 56.9518 36.4963C57.4631 36.7094 58.0223 36.7808 58.5707 36.7029L60.2021 36.4711C60.7481 36.3935 61.2632 36.1708 61.6938 35.8263C62.1244 35.4818 62.4547 35.0281 62.6502 34.5125L64.245 30.3053M43.4297 75.5952C44.5643 76.0093 45.6933 75.3918 45.8601 74.1956C45.8993 73.9158 45.8712 73.6306 45.778 73.3637C45.6849 73.0969 45.5294 72.8562 45.3245 72.6616L43.3063 70.7445C42.9474 70.4035 42.7281 69.9412 42.6911 69.4475L42.3184 64.4779C42.2929 64.1369 42.3554 63.7951 42.4999 63.4851L43.8963 60.493C44.0653 60.1308 44.1216 59.7261 44.0579 59.3315C43.9942 58.9369 43.8134 58.5705 43.5389 58.2799L42.4005 57.0745C42.2141 56.8771 41.9893 56.7198 41.74 56.6123C41.4906 56.5048 41.2219 56.4494 40.9504 56.4493H38.4623C38.0296 56.4493 37.6086 56.3086 37.2628 56.0483C36.9171 55.7881 36.6654 55.4225 36.5456 55.0067L36.4432 54.6507C36.076 53.3757 37.0329 52.1041 38.3599 52.1041C38.6559 52.1041 38.9483 52.0381 39.2157 51.9111C39.4831 51.784 39.7189 51.599 39.9059 51.3695L42.4566 48.2399C42.7468 47.884 42.9052 47.4389 42.9051 46.9797V44.5016C42.9051 44.1818 42.8282 43.8666 42.6809 43.5827C42.5335 43.2988 42.32 43.0545 42.0585 42.8705L39.2448 40.8906C38.88 40.6339 38.6118 40.2623 38.483 39.8352L36.313 32.6397M71.8909 36.9604L71.9398 38.9107C71.9528 39.4309 71.8174 39.9441 71.5494 40.3902C71.2814 40.8362 70.8919 41.1967 70.4265 41.4294L68.4385 42.4234C67.8972 42.694 67.2816 42.7777 66.6876 42.6616L63.6733 42.0719C61.9816 41.7409 60.4084 43.0363 60.4084 44.76V45.522C60.4084 46.3932 60.8229 47.2125 61.5249 47.7286L65.0027 50.286C65.473 50.6318 66.0415 50.8184 66.6253 50.8183H68.3335C68.933 50.8183 69.516 51.015 69.9929 51.3782C70.4699 51.7414 70.8145 52.2511 70.974 52.829L71.4697 54.6262C71.6013 55.1029 71.6013 55.6063 71.4697 56.0829L70.7643 58.6405C70.6565 59.0313 70.4632 59.3934 70.1985 59.7005C69.9338 60.0076 69.6042 60.2521 69.2335 60.4163L67.4516 61.2059C67.0619 61.3786 66.7178 61.6398 66.4468 61.9689C66.1758 62.298 65.9854 62.6858 65.8907 63.1015L64.3776 69.7403C64.3107 70.0338 64.3123 70.3388 64.3822 70.6317C64.4521 70.9245 64.5885 71.1973 64.7808 71.429C65.4583 72.2451 66.6661 72.3803 67.4979 71.7224" stroke="black" stroke-width="4" stroke-miterlimit="10" stroke-linecap="round" stroke-linejoin="round"/>
<path d="M61.4366 75.2612C70.5654 71.5368 77 62.571 77 52.1042C77 38.2974 65.8069 27.1042 52 27.1042C38.1932 27.1042 27 38.2974 27 52.1042C27 65.9111 38.1932 77.1042 52 77.1042C52.8833 77.1042 53.7545 77.058 54.6137 76.9694M47.4668 15.3155H52.0543V20.396L64.2495 11.2511L52.0543 2.10425V7.18473H36.5533V15.3155H40.4246M20.2928 2.10425V10.2344L16.2276 9.01491L12.1626 10.2344V2.10425M39.7501 92.958L51.9453 102.104V97.023H67.4471V88.8928H51.9453V83.8115L39.7501 92.958Z" stroke="black" stroke-width="4" stroke-miterlimit="10" stroke-linecap="round" stroke-linejoin="round"/>
<path d="M12.1978 2V9.0871C12.1978 9.82012 12.9603 10.304 13.6236 9.99192L15.7641 8.98461C16.0269 8.86092 16.3306 8.85764 16.596 8.97562L18.9862 10.0379C19.6475 10.3318 20.3924 9.84778 20.3924 9.12412V2.23413" stroke="#0000FB" stroke-width="4"/>
<path d="M8.09759 19.1775H10.1302M10.1302 24.462H8.09759M91.8374 73.6489V81.7791L87.7724 80.5596L83.7073 81.7791V73.6489M2 2.10425H30.4553V30.5596H2V2.10425Z" stroke="#0000FB" stroke-width="4" stroke-miterlimit="10" stroke-linecap="round" stroke-linejoin="round"/>
<path d="M92.5434 102.104H102V73.6494H73.5454V102.104H85.5011M79.6424 90.7221H81.675M81.675 96.0066H79.6424" stroke="#0000FB" stroke-width="4" stroke-miterlimit="10" stroke-linecap="round" stroke-linejoin="round"/>
</svg>
