<svg width="120" height="120" viewBox="0 0 120 120" fill="none" xmlns="http://www.w3.org/2000/svg">
<path d="M16.5552 77.9698C14.2005 67.8559 15.4484 57.2374 20.0835 47.9449C24.7187 38.6525 32.4507 31.2683 41.9466 27.0656C51.4424 22.8628 62.1071 22.1048 72.1019 24.9223C82.0968 27.7397 90.7954 33.956 96.6983 42.4995C96.9459 42.8573 97.3256 43.102 97.7537 43.1799C98.1818 43.2578 98.6233 43.1624 98.9811 42.9148C99.3389 42.6671 99.5837 42.2875 99.6616 41.8594C99.7394 41.4313 99.6441 40.9898 99.3964 40.632C96.3929 36.303 92.6961 32.4988 88.4549 29.3726L93.1986 21.116C93.4154 20.7388 93.4734 20.291 93.36 19.871C93.2466 19.451 92.9711 19.0932 92.5939 18.8763L85.888 15.0242C85.5107 14.8075 85.0627 14.7496 84.6427 14.8631C84.2227 14.9767 83.865 15.2525 83.6483 15.6298L78.9064 23.8798C74.6378 22.0404 70.1237 20.8333 65.5067 20.2967V15.2857H68.8349C69.27 15.2857 69.6873 15.1129 69.995 14.8052C70.3026 14.4975 70.4755 14.0802 70.4755 13.6451V5.9126C70.4756 5.69711 70.4333 5.48372 70.3509 5.28461C70.2685 5.08551 70.1476 4.9046 69.9952 4.75223C69.8429 4.59986 69.662 4.47901 69.4629 4.39661C69.2637 4.3142 69.0504 4.27185 68.8349 4.27197H51.1649C50.9494 4.27185 50.736 4.3142 50.5369 4.39661C50.3378 4.47901 50.1569 4.59986 50.0045 4.75223C49.8521 4.9046 49.7313 5.08551 49.6489 5.28461C49.5665 5.48372 49.5241 5.69711 49.5242 5.9126V13.6451C49.5242 14.0802 49.6971 14.4975 50.0048 14.8052C50.3125 15.1129 50.7297 15.2857 51.1649 15.2857H54.493V20.2957C49.8733 20.8249 45.3564 22.0297 41.0867 23.8713L36.3514 15.6298C36.2442 15.4429 36.1012 15.2789 35.9306 15.1473C35.76 15.0157 35.5651 14.919 35.3571 14.8628C35.1491 14.8065 34.9321 14.7918 34.7184 14.8195C34.5047 14.8472 34.2985 14.9167 34.1117 15.0242L27.4058 18.8763C27.0287 19.0932 26.7531 19.451 26.6397 19.871C26.5263 20.291 26.5844 20.7388 26.8011 21.116L31.5439 29.3707C24.0316 34.9258 18.3074 42.5563 15.076 51.3228C11.8445 60.0894 11.2468 69.6095 13.3564 78.7113C13.4399 79.0718 13.6428 79.3934 13.9321 79.624C14.2214 79.8546 14.5802 79.9806 14.9502 79.9817C15.0764 79.9816 15.2021 79.9674 15.3252 79.9395C15.5353 79.891 15.7338 79.8015 15.9094 79.6763C16.0849 79.551 16.2341 79.3924 16.3483 79.2095C16.4625 79.0266 16.5396 78.8229 16.5751 78.6102C16.6106 78.3975 16.6038 78.1799 16.5552 77.9698ZM85.6761 18.687L89.5358 20.906L85.7417 27.5098C84.4926 26.7075 83.2065 25.9642 81.8877 25.2823L85.6761 18.687ZM52.8055 7.55322H67.1942V12.0045H52.8055V7.55322ZM57.7742 15.2857H62.2255V20.0379C61.4858 20.0032 60.7499 19.9685 59.9999 19.9685C59.2499 19.9685 58.5121 19.991 57.7742 20.0257V15.2857ZM30.4639 20.906L34.3236 18.6888L38.1149 25.2879C36.793 25.9704 35.5077 26.7117 34.2589 27.5117L30.4639 20.906ZM107.879 67.8513C107.878 77.7747 104.793 87.4525 99.0521 95.5464C93.3109 103.64 85.1968 109.751 75.8317 113.032C66.4666 116.313 56.3133 116.604 46.7759 113.863C37.2385 111.123 28.7882 105.487 22.5936 97.7342C22.3219 97.3945 22.1961 96.9608 22.2441 96.5285C22.2921 96.0962 22.5099 95.7006 22.8496 95.4288C23.1892 95.1571 23.6229 95.0314 24.0552 95.0794C24.4875 95.1274 24.8831 95.3451 25.1549 95.6848C31.9778 104.215 41.6933 109.945 52.4595 111.789C63.2257 113.633 74.2944 111.462 83.567 105.689C92.8397 99.9161 99.6718 90.9413 102.768 80.4664C105.865 69.9915 105.01 58.7445 100.367 48.8576C100.184 48.4644 100.165 48.0149 100.312 47.6073C100.46 47.1997 100.763 46.8672 101.155 46.6824C101.547 46.4976 101.997 46.4755 102.405 46.621C102.814 46.7665 103.148 47.0677 103.335 47.4589C106.344 53.8341 107.897 60.7995 107.879 67.8495V67.8513ZM20.6521 88.8626C20.7558 89.0527 20.8208 89.2615 20.8434 89.4769C20.866 89.6923 20.8458 89.91 20.7838 90.1175C20.7219 90.325 20.6195 90.5182 20.4825 90.686C20.3455 90.8537 20.1767 90.9927 19.9857 91.0948C19.7947 91.197 19.5854 91.2603 19.3699 91.2812C19.1543 91.3021 18.9368 91.2801 18.7298 91.2164C18.5227 91.1528 18.3304 91.0488 18.1638 90.9105C17.9971 90.7722 17.8595 90.6022 17.7589 90.4104C17.062 89.1069 16.4254 87.7721 15.8511 86.4101C15.6938 86.0111 15.6988 85.5663 15.8652 85.171C16.0316 84.7757 16.3462 84.4612 16.7415 84.2948C17.1368 84.1284 17.5816 84.1234 17.9806 84.2808C18.3796 84.4382 18.7011 84.7455 18.8764 85.137C19.4093 86.4061 20.0018 87.6494 20.6521 88.8626ZM92.0802 49.0488C92.0511 49.0051 92.0198 48.9629 91.9864 48.9223C88.7588 43.4921 84.2099 38.9667 78.763 35.7673C78.7182 35.7304 78.6713 35.6963 78.6224 35.6651C78.5692 35.6375 78.5144 35.6131 78.4583 35.592C72.8123 32.3472 66.4107 30.648 59.8988 30.6656C53.3868 30.6832 46.9945 32.417 41.3661 35.6923C41.3091 35.7148 41.2534 35.7405 41.1992 35.7692C41.1561 35.7983 41.1145 35.8295 41.0746 35.8629C35.6434 39.0907 31.1171 43.64 27.9167 49.0873C27.839 49.1759 27.7797 49.2792 27.7424 49.391C24.4977 55.0373 22.7987 61.4391 22.8165 67.9512C22.8342 74.4633 24.5682 80.8557 27.8436 86.4842C27.8655 86.5405 27.8906 86.5956 27.9186 86.6492C27.9392 86.6848 27.9702 86.711 27.9927 86.7429C31.221 92.1862 35.7763 96.7224 41.233 99.9279C41.2788 99.9652 41.3267 100 41.3764 100.032C41.4177 100.055 41.4627 100.065 41.5049 100.085C47.1612 103.343 53.5777 105.049 60.1051 105.031C66.6325 105.012 73.0391 103.27 78.6767 99.9795C78.717 99.9598 78.7602 99.9513 78.7996 99.9279C78.8389 99.9045 78.882 99.867 78.9242 99.8342C84.3676 96.5993 88.902 92.0372 92.1036 86.5742C92.1289 86.5376 92.1608 86.5104 92.1833 86.471C92.2116 86.4181 92.2363 86.3632 92.2574 86.307C95.502 80.6605 97.201 74.2586 97.1833 67.7464C97.1655 61.2341 95.4315 54.8416 92.1561 49.2129C92.1341 49.1568 92.1087 49.102 92.0802 49.0488ZM78.5277 96.2182L76.4192 92.6248C76.1992 92.2493 75.839 91.9767 75.4179 91.8668C74.9969 91.7569 74.5494 91.8188 74.1739 92.0388C73.7985 92.2589 73.5258 92.6191 73.4159 93.0402C73.3061 93.4612 73.3679 93.9087 73.588 94.2842L75.6992 97.886C71.3475 100.173 66.5475 101.48 61.6367 101.713V97.527C61.6367 97.0919 61.4639 96.6746 61.1562 96.3669C60.8485 96.0592 60.4312 95.8863 59.9961 95.8863C59.561 95.8863 59.1437 96.0592 58.836 96.3669C58.5283 96.6746 58.3555 97.0919 58.3555 97.527V101.713C53.5103 101.48 48.7727 100.203 44.4674 97.9685L46.558 94.3564C46.7691 93.9802 46.8236 93.536 46.7096 93.12C46.5956 92.7039 46.3224 92.3495 45.9491 92.1335C45.5757 91.9174 45.1323 91.8571 44.7148 91.9655C44.2973 92.074 43.9393 92.3425 43.7183 92.7129L41.6305 96.3213C37.6417 93.7379 34.2357 90.3508 31.6302 86.3764L35.2274 84.2689C35.6008 84.0479 35.8714 83.6881 35.9802 83.268C36.0889 82.848 36.0268 82.402 35.8075 82.0277C35.5882 81.6533 35.2296 81.381 34.8101 81.2704C34.3905 81.1599 33.9443 81.22 33.5689 81.4376L29.9671 83.5489C27.6793 79.1972 26.3728 74.3972 26.1392 69.4864H30.3252C30.7603 69.4864 31.1776 69.3135 31.4853 69.0058C31.793 68.6981 31.9658 68.2808 31.9658 67.8457C31.9658 67.4106 31.793 66.9933 31.4853 66.6856C31.1776 66.3779 30.7603 66.2051 30.3252 66.2051H26.1392C26.3706 61.3589 27.6469 56.62 29.8808 52.3132L33.4939 54.4029C33.8698 54.6097 34.3118 54.661 34.725 54.5458C35.1383 54.4307 35.49 54.1582 35.7048 53.7869C35.9196 53.4155 35.9804 52.9748 35.8742 52.5591C35.7679 52.1435 35.5031 51.786 35.1364 51.5632L31.5289 49.4754C34.1121 45.4881 37.4986 42.0834 41.4721 39.4788L43.5805 43.076C43.8014 43.4494 44.1613 43.7201 44.5813 43.8288C45.0013 43.9376 45.4473 43.8755 45.8217 43.6562C46.1961 43.4369 46.4683 43.0783 46.5789 42.6587C46.6895 42.2392 46.6294 41.7929 46.4117 41.4176L44.3005 37.8157C48.652 35.5278 53.4522 34.2215 58.363 33.9888V38.1739C58.363 38.609 58.5358 39.0263 58.8435 39.3339C59.1512 39.6416 59.5685 39.8145 60.0036 39.8145C60.4387 39.8145 60.856 39.6416 61.1637 39.3339C61.4714 39.0263 61.6442 38.609 61.6442 38.1739V33.9888C66.4903 34.2199 71.2292 35.4959 75.5361 37.7295L73.4417 41.3435C73.3304 41.5301 73.2573 41.737 73.2266 41.9521C73.1958 42.1672 73.2081 42.3862 73.2628 42.5965C73.3174 42.8068 73.4132 43.0042 73.5448 43.1771C73.6763 43.3501 73.8409 43.4952 74.0289 43.604C74.217 43.7129 74.4248 43.7833 74.6402 43.8111C74.8557 43.839 75.0746 43.8238 75.2842 43.7664C75.4937 43.709 75.6898 43.6105 75.861 43.4767C76.0322 43.3429 76.1751 43.1765 76.2814 42.987L78.3692 39.3748C82.3583 41.9587 85.7643 45.3465 88.3696 49.3217L84.7724 51.4292C84.5855 51.5375 84.4218 51.6818 84.2908 51.8536C84.1598 52.0254 84.064 52.2214 84.0089 52.4303C83.9538 52.6392 83.9406 52.857 83.9699 53.071C83.9992 53.2851 84.0705 53.4912 84.1797 53.6777C84.2889 53.8641 84.4338 54.0271 84.6062 54.1574C84.7786 54.2876 84.975 54.3826 85.1842 54.4367C85.3933 54.4909 85.6111 54.5032 85.8251 54.4729C86.039 54.4427 86.2449 54.3704 86.4308 54.2604L90.0336 52.1492C92.3206 56.5011 93.6268 61.301 93.8605 66.2117H89.6746C89.2394 66.2117 88.8221 66.3845 88.5145 66.6922C88.2068 66.9999 88.0339 67.4172 88.0339 67.8523C88.0339 68.2874 88.2068 68.7047 88.5145 69.0124C88.8221 69.3201 89.2394 69.4929 89.6746 69.4929H93.8605C93.6286 74.3378 92.3523 79.0754 90.1189 83.381L86.5067 81.2904C86.1301 81.0725 85.6822 81.0131 85.2617 81.1254C84.8413 81.2376 84.4826 81.5123 84.2647 81.889C84.0468 82.2657 83.9874 82.7135 84.0997 83.134C84.2119 83.5545 84.4866 83.9131 84.8633 84.131L88.4708 86.2188C85.888 90.2073 82.5014 93.6129 78.5277 96.2182ZM84.7442 67.8495C84.7442 67.4144 84.5714 66.9971 84.2637 66.6894C83.956 66.3817 83.5387 66.2089 83.1036 66.2089H67.3067C66.9935 64.8257 66.2952 63.5595 65.2924 62.5566C64.2897 61.5537 63.0236 60.8551 61.6405 60.5417V44.7457C61.6405 44.3106 61.4676 43.8933 61.16 43.5856C60.8523 43.2779 60.435 43.1051 59.9999 43.1051C59.5647 43.1051 59.1474 43.2779 58.8398 43.5856C58.5321 43.8933 58.3592 44.3106 58.3592 44.7457V60.5417C57.0503 60.8348 55.8441 61.474 54.8665 62.3925C53.889 63.311 53.176 64.4752 52.802 65.7633C52.428 67.0515 52.4067 68.4165 52.7403 69.7157C53.074 71.0149 53.7504 72.2007 54.6988 73.1492C55.6473 74.0977 56.833 74.7742 58.1322 75.108C59.4313 75.4418 60.7963 75.4207 62.0845 75.0468C63.3727 74.673 64.5369 73.9601 65.4555 72.9826C66.3741 72.0052 67.0135 70.799 67.3067 69.4901H83.1036C83.5387 69.4899 83.9558 69.3169 84.2634 69.0093C84.5711 68.7017 84.744 68.2845 84.7442 67.8495ZM59.9999 72.0617C59.1665 72.0618 58.3518 71.8149 57.6588 71.352C56.9658 70.8891 56.4257 70.2311 56.1067 69.4613C55.7877 68.6914 55.7042 67.8442 55.8667 67.0268C56.0292 66.2095 56.4305 65.4587 57.0198 64.8694C57.6091 64.2801 58.3599 63.8789 59.1772 63.7163C59.9946 63.5538 60.8418 63.6373 61.6117 63.9563C62.3815 64.2753 63.0395 64.8154 63.5024 65.5084C63.9653 66.2014 64.2122 67.0161 64.2121 67.8495C64.2103 68.9661 63.766 70.0365 62.9764 70.826C62.1869 71.6156 61.1165 72.0599 59.9999 72.0617Z" fill="url(#paint0_linear_135_842)"/>
<defs>
<linearGradient id="paint0_linear_135_842" x1="97.3217" y1="98.2067" x2="22.6592" y2="23.5432" gradientUnits="userSpaceOnUse">
<stop offset="0.019305" stop-color="#07077D"/>
<stop offset="1" stop-color="white"/>
</linearGradient>
</defs>
</svg>
