<svg width="150" height="150" viewBox="0 0 150 150" fill="none" xmlns="http://www.w3.org/2000/svg">
<path d="M63.2812 128.906H67.9688V133.594H63.2812V128.906ZM16.4062 128.906H21.0938V133.594H16.4062V128.906ZM46.875 124.219H37.5C33.6234 124.219 30.4688 127.373 30.4688 131.25C30.4688 135.127 33.6234 138.281 37.5 138.281H46.875C50.7516 138.281 53.9062 135.127 53.9062 131.25C53.9062 127.373 50.7516 124.219 46.875 124.219ZM46.875 133.594H37.5C36.8965 133.567 36.3267 133.308 35.9092 132.871C35.4918 132.435 35.2587 131.854 35.2587 131.25C35.2587 130.646 35.4918 130.065 35.9092 129.629C36.3267 129.192 36.8965 128.933 37.5 128.906H46.875C47.4785 128.933 48.0483 129.192 48.4658 129.629C48.8833 130.065 49.1163 130.646 49.1163 131.25C49.1163 131.854 48.8833 132.435 48.4658 132.871C48.0483 133.308 47.4785 133.567 46.875 133.594ZM42.1875 67.9688C48.6492 67.9688 53.9062 62.7117 53.9062 56.25C53.9062 49.7883 48.6492 44.5312 42.1875 44.5312C35.7258 44.5312 30.4688 49.7883 30.4688 56.25C30.4688 62.7117 35.7258 67.9688 42.1875 67.9688ZM42.1875 49.2188C46.0641 49.2188 49.2188 52.3734 49.2188 56.25C49.2188 60.1266 46.0641 63.2812 42.1875 63.2812C38.3109 63.2812 35.1562 60.1266 35.1562 56.25C35.1562 52.3734 38.3109 49.2188 42.1875 49.2188Z" fill="#0000FB" fill-opacity="0.5"/>
<path d="M30.1617 88.7555C24.5063 90.8766 21.0938 94.4062 21.0938 98.4375C21.0938 105.12 30.1617 110.156 42.1875 110.156C54.2133 110.156 63.2812 105.12 63.2812 98.4375C63.2812 94.4062 59.8688 90.8766 54.2133 88.7555C60.7664 80.3953 67.9688 68.4375 67.9688 56.25C67.9688 42.0352 56.4023 30.4688 42.1875 30.4688C27.9727 30.4688 16.4062 42.0352 16.4062 56.25C16.4062 68.4375 23.6086 80.3953 30.1617 88.7555ZM58.5938 98.4375C58.5938 101.756 51.5766 105.469 42.1875 105.469C32.7984 105.469 25.7812 101.756 25.7812 98.4375C25.7812 96.2508 28.8375 93.9539 33.3492 92.6203C37.1977 97.0641 40.275 99.8672 40.6219 100.179L42.1875 101.592L43.7555 100.179C44.1023 99.8672 47.1797 97.0641 51.0281 92.6203C55.5375 93.9539 58.5938 96.2508 58.5938 98.4375ZM42.1875 35.1562C53.8172 35.1562 63.2812 44.618 63.2812 56.25C63.2812 72.9422 47.318 90.1055 42.1875 95.1914C37.0523 90.1102 21.0938 72.968 21.0938 56.25C21.0938 44.618 30.5578 35.1562 42.1875 35.1562ZM117.188 124.219C113.311 124.219 110.156 127.373 110.156 131.25C110.156 135.127 113.311 138.281 117.188 138.281C121.064 138.281 124.219 135.127 124.219 131.25C124.219 127.373 121.064 124.219 117.188 124.219ZM117.188 133.594C116.584 133.567 116.014 133.308 115.597 132.871C115.179 132.435 114.946 131.854 114.946 131.25C114.946 130.646 115.179 130.065 115.597 129.629C116.014 129.192 116.584 128.933 117.188 128.906C117.791 128.933 118.361 129.192 118.778 129.629C119.196 130.065 119.429 130.646 119.429 131.25C119.429 131.854 119.196 132.435 118.778 132.871C118.361 133.308 117.791 133.567 117.188 133.594Z" fill="#0000FB" fill-opacity="0.5"/>
<path d="M142.969 114.844V81.1055C142.971 79.7169 142.56 78.3592 141.787 77.2055L134.592 66.4125C133.951 65.4483 133.082 64.6578 132.061 64.1115C131.04 63.5651 129.9 63.2799 128.742 63.2812H100.781V49.2188H105.469C108.054 49.2188 110.156 47.1164 110.156 44.5312V39.8438C110.156 37.2586 108.054 35.1562 105.469 35.1562H82.0312V14.0625C82.0312 7.60078 76.7742 2.34375 70.3125 2.34375H14.0625C7.60078 2.34375 2.34375 7.60078 2.34375 14.0625V135.938C2.34375 142.399 7.60078 147.656 14.0625 147.656H70.3125C76.7742 147.656 82.0312 142.399 82.0312 135.938V128.906H100.969C100.859 129.675 100.781 130.453 100.781 131.25C100.781 140.295 108.141 147.656 117.188 147.656C126.234 147.656 133.594 140.295 133.594 131.25C133.594 130.453 133.516 129.675 133.406 128.906H142.969C145.554 128.906 147.656 126.804 147.656 124.219V119.531C147.656 116.946 145.554 114.844 142.969 114.844ZM133.594 114.844V110.156H138.281V114.844H133.594ZM138.281 81.1055V91.4062H110.156V77.3438H136.245L137.887 79.8094C138.145 80.1937 138.281 80.6414 138.281 81.1055ZM128.742 67.9688C129.527 67.9688 130.256 68.3578 130.692 69.0117L133.12 72.6562H110.156C107.571 72.6562 105.469 74.7586 105.469 77.3438V91.4062C105.469 93.9914 107.571 96.0938 110.156 96.0938H138.281V105.469H128.906V114.844H100.781V67.9688H128.742ZM96.0938 114.844H91.4062V53.9062H86.7188V114.844H82.0312V49.2188H96.0938V114.844ZM77.3438 114.844H7.03125V25.7812H77.3438V114.844ZM105.469 39.8438V44.5312H82.0312V39.8438H105.469ZM30.4688 7.03125H53.9062V11.7188H30.4688V7.03125ZM14.0625 7.03125H25.7812V11.7188C25.7812 14.3039 27.8836 16.4062 30.4688 16.4062H53.9062C56.4914 16.4062 58.5938 14.3039 58.5938 11.7188V7.03125H70.3125C74.1891 7.03125 77.3438 10.1859 77.3438 14.0625V21.0938H7.03125V14.0625C7.03125 10.1859 10.1859 7.03125 14.0625 7.03125ZM70.3125 142.969H14.0625C10.1859 142.969 7.03125 139.814 7.03125 135.938V119.531H77.3438V135.938C77.3438 139.814 74.1891 142.969 70.3125 142.969ZM82.0312 124.219V119.531H105.729C104.349 120.885 103.218 122.472 102.389 124.219H82.0312ZM117.188 142.969C110.726 142.969 105.469 137.712 105.469 131.25C105.469 124.788 110.726 119.531 117.188 119.531C123.649 119.531 128.906 124.788 128.906 131.25C128.906 137.712 123.649 142.969 117.188 142.969ZM142.969 124.219H131.988C131.159 122.472 130.028 120.886 128.648 119.531H142.969V124.219Z" fill="#0000FB"/>
</svg>
