<svg width="100" height="86" viewBox="0 0 100 86" fill="none" xmlns="http://www.w3.org/2000/svg">
<path d="M99.8603 48.646L99.8598 48.6448L80.9793 1.2374C80.884 0.997862 80.7424 0.779438 80.5627 0.594603C80.383 0.409767 80.1686 0.262141 79.9319 0.160151C79.6951 0.058162 79.4406 0.00380815 79.1828 0.000193034C78.925 -0.00342208 78.6691 0.0437723 78.4295 0.139082L78.4273 0.140063L1.83151 30.6398C1.51918 30.7748 1.24823 30.9902 1.0463 31.264C0.733701 31.4264 0.471173 31.6707 0.286855 31.9709C0.102536 32.2711 0.00337494 32.6157 0 32.968L0 84.007C0 84.5276 0.20682 85.0269 0.574961 85.395C0.943102 85.7632 1.44241 85.97 1.96304 85.97H84.4106C84.9313 85.97 85.4306 85.7632 85.7987 85.395C86.1669 85.0269 86.3737 84.5276 86.3737 84.007V56.1318L98.7644 51.1967C99.0038 51.1012 99.2221 50.9594 99.4068 50.7796C99.5914 50.5997 99.7388 50.3852 99.8406 50.1483C99.9424 49.9115 99.9965 49.6569 99.9998 49.3991C100.003 49.1414 99.9558 48.8854 99.8603 48.646ZM82.4476 82.0439H3.92608V34.931H82.4476V82.0439ZM32.7533 31.0147L65.6224 17.9173C67.0742 19.4432 68.8195 20.6597 70.7536 21.4937C72.6876 22.3276 74.7703 22.7617 76.8765 22.77L80.1548 31.0147H32.7533ZM86.3737 51.9152V32.968C86.3737 32.4473 86.1669 31.948 85.7987 31.5799C85.4306 31.2117 84.9313 31.0049 84.4106 31.0049H84.3792L80.2196 20.5576C80.1735 20.4705 80.1196 20.3877 80.0586 20.3103C79.9568 19.8531 79.693 19.4482 79.316 19.1704C78.9389 18.8925 78.474 18.7605 78.0072 18.7987C76.0582 18.9764 74.0956 18.664 72.298 17.8899C70.5005 17.1157 68.9251 15.9044 67.715 14.3662C67.4191 14.0011 67.001 13.7554 66.5381 13.6746C66.0751 13.5938 65.5985 13.6832 65.1964 13.9265C65.1032 13.9376 65.0107 13.9546 64.9196 13.9775L24.7912 29.9567C24.5508 30.0508 24.3317 30.1921 24.1466 30.3721C23.9616 30.5521 23.8143 30.7673 23.7135 31.0049H11.527L78.0583 4.51371L95.4881 48.2797L86.3737 51.9152Z" fill="black"/>
<path d="M9.25366 68.7913C11.1295 69.3458 12.837 70.3603 14.221 71.7426C15.605 73.1249 16.6216 74.8311 17.1784 76.7063C17.2993 77.1112 17.5476 77.4663 17.8864 77.7188C18.2252 77.9713 18.6365 78.1078 19.059 78.1079C19.1609 78.1014 19.262 78.0863 19.3613 78.0627C19.4494 78.0878 19.5395 78.1062 19.6303 78.1177H66.7432C66.8242 78.1071 66.9042 78.0907 66.9827 78.0686C67.4537 78.1832 67.9509 78.106 68.3649 77.854C68.779 77.602 69.076 77.1959 69.1906 76.7249L69.1931 76.7141C69.7484 74.8371 70.7643 73.1288 72.1484 71.7447C73.5325 70.3606 75.2409 69.3446 77.1179 68.7893C77.5651 68.6525 77.9478 68.3586 78.1953 67.9617C78.4428 67.5648 78.5384 67.0918 78.4645 66.63C78.4907 66.5347 78.5097 66.4376 78.5214 66.3395V50.6352C78.5099 50.5368 78.4902 50.4397 78.4625 50.3446C78.537 49.8827 78.4416 49.4095 78.194 49.0125C77.9465 48.6155 77.5635 48.3216 77.1159 48.1853C75.2389 47.6302 73.5308 46.614 72.1472 45.2294C70.7637 43.8448 69.7488 42.1359 69.195 40.2585C69.0576 39.8084 68.7612 39.4235 68.361 39.1758C67.9608 38.928 67.4842 38.8342 67.02 38.9119C66.9292 38.8866 66.8367 38.8682 66.7432 38.8569H19.6303C19.5314 38.8687 19.4335 38.8884 19.3378 38.9158C18.876 38.8423 18.4032 38.938 18.0064 39.1855C17.6096 39.4329 17.3156 39.8154 17.1784 40.2625C16.6228 42.1391 15.6067 43.847 14.2226 45.2307C12.8386 46.6145 11.1304 47.6301 9.25366 48.1853C8.80639 48.3221 8.42369 48.616 8.17619 49.0129C7.92869 49.4098 7.83308 49.8828 7.90702 50.3446C7.88148 50.44 7.86311 50.5371 7.85205 50.6352V66.3395C7.86334 66.4317 7.88174 66.523 7.90702 66.6123C7.82917 67.0771 7.92283 67.5542 8.17055 67.9551C8.41827 68.3559 8.80319 68.6531 9.25366 68.7913ZM11.7781 51.4322C13.7288 50.6487 15.5007 49.4785 16.9872 47.9921C18.4736 46.5056 19.6438 44.7337 20.4273 42.783H65.9442C66.7281 44.7338 67.8987 46.5057 69.3855 47.9921C70.8722 49.4785 72.6444 50.6487 74.5954 51.4322V65.5425C72.6452 66.3268 70.8737 67.4973 69.3874 68.9837C67.9011 70.47 66.7306 72.2415 65.9462 74.1916H20.4273C19.6429 72.2415 18.4724 70.47 16.9861 68.9837C15.4997 67.4973 13.7283 66.3268 11.7781 65.5425V51.4322Z" fill="black"/>
<path d="M43.1869 70.2654C49.6919 70.2654 54.9651 64.9922 54.9651 58.4872C54.9651 51.9822 49.6919 46.709 43.1869 46.709C36.6819 46.709 31.4087 51.9822 31.4087 58.4872C31.4151 64.9895 36.6846 70.2591 43.1869 70.2654ZM43.1869 50.6351C47.5235 50.6351 51.0391 54.1506 51.0391 58.4872C51.0391 62.8238 47.5235 66.3394 43.1869 66.3394C38.8503 66.3394 35.3348 62.8238 35.3348 58.4872C35.3348 54.1506 38.8503 50.6351 43.1869 50.6351ZM21.5935 61.4318C23.2196 61.4318 24.538 60.1133 24.538 58.4872C24.538 56.8611 23.2196 55.5427 21.5935 55.5427C19.9674 55.5427 18.6489 56.8611 18.6489 58.4872C18.6489 60.1136 19.9674 61.4318 21.5935 61.4318ZM21.5935 57.5057C21.8538 57.5057 22.1035 57.6091 22.2875 57.7932C22.4716 57.9772 22.575 58.2269 22.575 58.4872C22.575 58.7475 22.4716 58.9972 22.2875 59.1813C22.1035 59.3653 21.8538 59.4687 21.5935 59.4687C21.3332 59.4687 21.0835 59.3653 20.8994 59.1813C20.7154 58.9972 20.612 58.7475 20.612 58.4872C20.612 58.2269 20.7154 57.9772 20.8994 57.7932C21.0835 57.6091 21.3332 57.5057 21.5935 57.5057ZM64.7803 61.4318C66.4065 61.4318 67.7249 60.1133 67.7249 58.4872C67.7249 56.8611 66.4065 55.5427 64.7803 55.5427C63.1542 55.5427 61.8358 56.8611 61.8358 58.4872C61.8358 60.1136 63.1542 61.4318 64.7803 61.4318ZM64.7803 57.5057C65.0406 57.5057 65.2903 57.6091 65.4744 57.7932C65.6584 57.9772 65.7618 58.2269 65.7618 58.4872C65.7618 58.7475 65.6584 58.9972 65.4744 59.1813C65.2903 59.3653 65.0406 59.4687 64.7803 59.4687C64.52 59.4687 64.2704 59.3653 64.0863 59.1813C63.9022 58.9972 63.7988 58.7475 63.7988 58.4872C63.7988 58.2269 63.9022 57.9772 64.0863 57.7932C64.2704 57.6091 64.52 57.5057 64.7803 57.5057Z" fill="#0000FB"/>
</svg>
