<svg width="100" height="91" viewBox="0 0 100 91" fill="none" xmlns="http://www.w3.org/2000/svg">
<path d="M47.2015 23.8907C47.2015 23.5295 47.3456 23.1831 47.6019 22.9277C47.8583 22.6723 48.2061 22.5289 48.5687 22.5289H66.6499C67.0125 22.5289 67.3602 22.6723 67.6166 22.9277C67.873 23.1831 68.017 23.5295 68.017 23.8907C68.017 24.2519 67.873 24.5983 67.6166 24.8537C67.3602 25.1091 67.0125 25.2526 66.6499 25.2526H48.5687C48.2061 25.2526 47.8583 25.1091 47.6019 24.8537C47.3456 24.5983 47.2015 24.2519 47.2015 23.8907ZM48.5687 31.882H77.1248C77.4874 31.882 77.8351 31.7385 78.0915 31.4831C78.3479 31.2277 78.492 30.8813 78.492 30.5201C78.492 30.1589 78.3479 29.8125 78.0915 29.5571C77.8351 29.3017 77.4874 29.1583 77.1248 29.1583H48.569C48.2065 29.1583 47.8587 29.3017 47.6023 29.5571C47.346 29.8125 47.2019 30.1589 47.2019 30.5201C47.2019 30.8813 47.346 31.2277 47.6023 31.4831C47.8587 31.7385 48.2061 31.882 48.5687 31.882ZM77.1244 35.7809H48.569C48.2065 35.7809 47.8587 35.9243 47.6023 36.1797C47.346 36.4352 47.2019 36.7815 47.2019 37.1427C47.2019 37.5039 47.346 37.8503 47.6023 38.1057C47.8587 38.3611 48.2065 38.5046 48.569 38.5046H77.1248C77.4874 38.5046 77.8351 38.3611 78.0915 38.1057C78.3479 37.8503 78.492 37.5039 78.492 37.1427C78.492 36.7815 78.3479 36.4352 78.0915 36.1797C77.8351 35.9243 77.487 35.7809 77.1244 35.7809ZM77.1244 42.4042H48.569C48.2065 42.4042 47.8587 42.5477 47.6023 42.8031C47.346 43.0585 47.2019 43.4049 47.2019 43.7661C47.2019 44.1273 47.346 44.4737 47.6023 44.7291C47.8587 44.9845 48.2065 45.128 48.569 45.128H77.1248C77.4874 45.128 77.8351 44.9845 78.0915 44.7291C78.3479 44.4737 78.492 44.1273 78.492 43.7661C78.492 43.4049 78.3479 43.0585 78.0915 42.8031C77.8351 42.5477 77.487 42.4042 77.1244 42.4042ZM91.3914 70.2863V82.905C91.3891 84.8921 90.5957 86.7971 89.1852 88.2022C87.7748 89.6073 85.8624 90.3977 83.8677 90.4H26.8118C24.8171 90.3977 22.9047 89.6073 21.4942 88.2022C20.0838 86.7971 19.2904 84.8921 19.2881 82.905V50.2241L0.473108 34.0151C0.33724 33.8981 0.225842 33.7556 0.145278 33.5957C0.064715 33.4358 0.0165649 33.2617 0.00357887 33.0833C-0.00940715 32.9048 0.0130255 32.7256 0.0695951 32.5558C0.126165 32.386 0.215763 32.229 0.333271 32.0937L27.7871 0.471164C27.9046 0.335817 28.0477 0.224855 28.2082 0.144619C28.3688 0.0643827 28.5436 0.0164449 28.7228 0.0035446C28.9019 -0.0093557 29.0818 0.0130344 29.2523 0.0694356C29.4227 0.125837 29.5804 0.215144 29.7162 0.332253L39.5515 8.80797L57.2694 0.762411C57.4328 0.688173 57.6093 0.646732 57.7888 0.640454C57.9683 0.634177 58.1472 0.663186 58.3154 0.725825C58.4837 0.788464 58.6378 0.883504 58.7692 1.00552C58.9005 1.12753 59.0064 1.27413 59.0809 1.43693L64.4517 13.1751H72.9229C73.2855 13.1753 73.6333 13.3188 73.8898 13.5741L84.7962 24.4386C85.0526 24.6941 85.1966 25.0406 85.1967 25.4018V45.2365C88.3851 44.7973 91.6239 45.5501 94.2879 47.3497C96.9518 49.1494 98.8521 51.8682 99.6221 54.9816C100.392 58.0949 99.9769 61.3819 98.4569 64.2083C96.9369 67.0347 94.4198 69.2 91.3914 70.2863ZM82.4615 45.9181V26.7641H75.3702C74.3589 26.7629 73.3894 26.3622 72.6743 25.6498C71.9592 24.9375 71.5569 23.9717 71.5557 22.9643V15.8996H43.2324V43.2784L48.3735 48.2852C49.5387 49.4208 50.4578 50.2243 51.6802 50.2243H76.6293C78.1265 48.2695 80.1485 46.7765 82.4615 45.9181ZM74.2902 22.9643C74.2905 23.2494 74.4043 23.5227 74.6067 23.7243C74.8091 23.9259 75.0834 24.0393 75.3696 24.0396H80.5274L74.2902 17.8269V22.9643ZM57.1595 3.80659L39.9616 11.616C39.9101 11.6436 39.8568 11.6678 39.802 11.6885L21.4646 20.0154L30.1769 39.0568H36.4614C38.1617 39.0568 39.4634 39.8278 40.4971 40.6832V14.5374C40.4971 14.1762 40.6412 13.8298 40.8976 13.5744C41.1539 13.319 41.5017 13.1755 41.8643 13.1755H61.4454L57.1595 3.80659ZM19.2881 46.6224V45.4535C19.2908 43.7567 19.969 42.1302 21.174 40.9309C22.379 39.7317 24.0124 39.0575 25.7157 39.0564H27.1715L18.4094 19.9059C18.3349 19.7431 18.2934 19.5673 18.2871 19.3886C18.2808 19.2098 18.3099 19.0316 18.3728 18.864C18.4357 18.6965 18.5311 18.5429 18.6535 18.4121C18.776 18.2813 18.9231 18.1758 19.0865 18.1016L36.8145 10.0512L28.9611 3.28363L3.29642 32.8464L19.2881 46.6224ZM88.6565 70.9431C86.82 71.1843 84.9529 71.0317 83.1804 70.4955C81.4079 69.9594 79.7709 69.052 78.379 67.8343C76.9872 66.6166 75.8727 65.1166 75.1102 63.4348C74.3477 61.7531 73.9549 59.9284 73.958 58.0831C73.9565 56.317 74.3193 54.5695 75.0237 52.9488H51.6798C49.2475 52.9488 47.6371 51.379 46.4609 50.2331L40.9442 44.8601C40.9192 44.8374 40.895 44.8139 40.8717 44.7895L39.7739 43.7194C38.5673 42.5488 37.6842 41.7803 36.4616 41.7803H25.7157C24.7374 41.7807 23.7992 42.1676 23.1069 42.8562C22.4147 43.5449 22.0249 44.4789 22.0231 45.4535V82.905C22.0245 84.1698 22.5295 85.3823 23.4272 86.2766C24.325 87.171 25.5422 87.674 26.8118 87.6755H83.8677C85.1373 87.6741 86.3546 87.171 87.2524 86.2767C88.1502 85.3824 88.6552 84.1698 88.6565 82.905V70.9431ZM97.2653 58.0831C97.2654 56.0565 96.6621 54.0754 95.5319 52.3903C94.4016 50.7052 92.7952 49.3918 90.9156 48.6162C89.036 47.8406 86.9678 47.6377 84.9724 48.033C82.9771 48.4284 81.1442 49.4043 79.7057 50.8373C78.2671 52.2703 77.2874 54.0961 76.8905 56.0838C76.4936 58.0715 76.6973 60.1318 77.4758 62.0041C78.2543 63.8765 79.5727 65.4768 81.2643 66.6028C82.9559 67.7287 84.9446 68.3297 86.9791 68.3297C89.7062 68.3266 92.3207 67.246 94.2491 65.3251C96.1774 63.4042 97.2622 60.7997 97.2653 58.0831ZM93.9417 52.9341C93.8147 52.8076 93.664 52.7073 93.4981 52.6388C93.3322 52.5704 93.1545 52.5351 92.9749 52.5351C92.7954 52.5351 92.6176 52.5704 92.4517 52.6388C92.2858 52.7073 92.1351 52.8076 92.0082 52.9341L84.571 60.3426L81.9504 57.7321C81.694 57.4767 81.3462 57.3332 80.9836 57.3332C80.621 57.3332 80.2733 57.4767 80.0169 57.7321C79.7605 57.9875 79.6164 58.334 79.6164 58.6952C79.6164 59.0564 79.7605 59.4028 80.0169 59.6582L83.6044 63.2318C83.7314 63.3582 83.8821 63.4586 84.048 63.527C84.2138 63.5955 84.3916 63.6307 84.5712 63.6307C84.7507 63.6307 84.9285 63.5955 85.0944 63.527C85.2603 63.4586 85.411 63.3582 85.5379 63.2318L93.9417 54.8601C94.0686 54.7337 94.1693 54.5835 94.2381 54.4183C94.3068 54.2531 94.3421 54.076 94.3421 53.8971C94.3421 53.7182 94.3068 53.5411 94.2381 53.3759C94.1693 53.2107 94.0686 53.0605 93.9417 52.9341ZM81.3377 79.1721H29.3418C28.9792 79.1721 28.6314 79.3156 28.3751 79.571C28.1187 79.8264 27.9746 80.1728 27.9746 80.534C27.9746 80.8952 28.1187 81.2416 28.3751 81.497C28.6314 81.7524 28.9792 81.8959 29.3418 81.8959H81.3377C81.7003 81.8959 82.048 81.7524 82.3044 81.497C82.5608 81.2416 82.7048 80.8952 82.7048 80.534C82.7048 80.1728 82.5608 79.8264 82.3044 79.571C82.048 79.3156 81.7003 79.1721 81.3377 79.1721ZM29.3418 72.5937H42.6787C43.0413 72.5937 43.389 72.4502 43.6454 72.1948C43.9018 71.9394 44.0458 71.593 44.0458 71.2318C44.0458 70.8706 43.9018 70.5242 43.6454 70.2688C43.389 70.0134 43.0413 69.8699 42.6787 69.8699H29.3418C28.9792 69.8699 28.6314 70.0134 28.3751 70.2688C28.1187 70.5242 27.9746 70.8706 27.9746 71.2318C27.9746 71.593 28.1187 71.9394 28.3751 72.1948C28.6314 72.4502 28.9792 72.5937 29.3418 72.5937Z" fill="#050556"/>
</svg>
