<svg width="100" height="104" viewBox="0 0 100 104" fill="none" xmlns="http://www.w3.org/2000/svg">
<path d="M99.2896 33.1089L50.9095 0.279527C50.6412 0.0973802 50.3243 0 50 0C49.6757 0 49.3588 0.0973802 49.0905 0.279527L0.71045 33.1089C0.491596 33.2574 0.312422 33.4572 0.188579 33.6908C0.0647356 33.9245 -9.19923e-06 34.1849 9.80373e-10 34.4494V101.836C9.80373e-10 102.266 0.170671 102.678 0.474467 102.981C0.778262 103.285 1.1903 103.456 1.61993 103.456H98.3801C98.8097 103.456 99.2217 103.285 99.5255 102.981C99.8293 102.678 100 102.266 100 101.836V34.4494C100 34.1849 99.9353 33.9245 99.8115 33.6908C99.6876 33.4571 99.5084 33.2574 99.2896 33.1089ZM38.0129 100.216H20.5184V82.7216H24.19V91.4688C24.19 91.8985 24.3607 92.3105 24.6645 92.6143C24.9683 92.9181 25.3803 93.0887 25.81 93.0887H32.7215C33.1511 93.0887 33.5632 92.9181 33.867 92.6143C34.1707 92.3105 34.3414 91.8985 34.3414 91.4688V82.7216H38.0131V100.216H38.0129ZM17.0627 41.4688V37.7972H82.9375V41.4688H17.0627ZM27.4299 89.8489V82.7216H31.1016V89.8489H27.4299ZM38.0129 79.4817H20.5182V61.9872H24.1898V70.7344C24.1898 71.1641 24.3605 71.5761 24.6643 71.8799C24.9681 72.1837 25.3801 72.3544 25.8098 72.3544H32.7213C33.1509 72.3544 33.563 72.1837 33.8668 71.8799C34.1705 71.5761 34.3412 71.1641 34.3412 70.7344V61.9872H38.0129V79.4817ZM27.4299 69.1145V61.9872H31.1016V69.1145H27.4299ZM58.7473 100.216H41.2527V82.7216H44.9244V91.4688C44.9244 91.8985 45.0951 92.3105 45.3989 92.6143C45.7027 92.9181 46.1147 93.0887 46.5443 93.0887H53.4559C53.8855 93.0887 54.2975 92.9181 54.6013 92.6143C54.9051 92.3105 55.0758 91.8985 55.0758 91.4688V82.7216H58.7475L58.7473 100.216ZM48.1641 89.8489V82.7216H51.8357V89.8489H48.1641ZM96.7603 100.216H82.7215V65.5508C82.7215 65.1211 82.5508 64.7091 82.247 64.4053C81.9432 64.1015 81.5312 63.9308 81.1016 63.9308C80.6719 63.9308 80.2599 64.1015 79.9561 64.4053C79.6523 64.7091 79.4816 65.1211 79.4816 65.5508V100.216H61.9871V81.1016C61.9871 80.672 61.8164 80.26 61.5126 79.9562C61.2089 79.6524 60.7968 79.4817 60.3672 79.4817H41.2527V60.3673C41.2527 59.9376 41.0821 59.5256 40.7783 59.2218C40.4745 58.918 40.0624 58.7473 39.6328 58.7473H20.5184V44.7085H79.4816V58.6394C79.4816 59.0691 79.6523 59.4811 79.9561 59.7849C80.2599 60.0887 80.6719 60.2594 81.1016 60.2594C81.5312 60.2594 81.9432 60.0887 82.247 59.7849C82.5508 59.4811 82.7215 59.0691 82.7215 58.6394V44.7085H84.5574C84.9871 44.7085 85.3991 44.5378 85.7029 44.234C86.0067 43.9302 86.1773 43.5182 86.1773 43.0886V36.1772C86.1773 35.7476 86.0067 35.3356 85.7029 35.0318C85.3991 34.728 84.9871 34.5573 84.5574 34.5573H15.4428C15.0131 34.5573 14.6011 34.728 14.2973 35.0318C13.9935 35.3356 13.8228 35.7476 13.8228 36.1772V43.0888C13.8228 43.5184 13.9935 43.9304 14.2973 44.2342C14.6011 44.538 15.0131 44.7087 15.4428 44.7087H17.2787V100.216H3.23986V35.3078L50 3.57758L96.7601 35.3078L96.7603 100.216Z" fill="black"/>
<path d="M56.9114 13.8228H43.0886C42.659 13.8228 42.2469 13.9934 41.9431 14.2972C41.6393 14.601 41.4687 15.0131 41.4687 15.4427C41.4687 15.8723 41.6393 16.2844 41.9431 16.5881C42.2469 16.8919 42.659 17.0626 43.0886 17.0626H56.9114C57.8062 17.0626 58.5314 16.3374 58.5314 15.4427C58.5314 14.548 57.8062 13.8228 56.9114 13.8228ZM56.9114 20.7343H43.0886C42.659 20.7343 42.2469 20.905 41.9431 21.2087C41.6393 21.5125 41.4687 21.9246 41.4687 22.3542C41.4687 22.7838 41.6393 23.1959 41.9431 23.4997C42.2469 23.8035 42.659 23.9741 43.0886 23.9741H56.9114C57.8062 23.9741 58.5314 23.2489 58.5314 22.3542C58.5314 21.4595 57.8062 20.7343 56.9114 20.7343ZM56.9114 27.6456H43.0886C42.659 27.6456 42.2469 27.8163 41.9431 28.1201C41.6393 28.4239 41.4687 28.8359 41.4687 29.2655C41.4687 29.6952 41.6393 30.1072 41.9431 30.411C42.2469 30.7148 42.659 30.8855 43.0886 30.8855H56.9114C57.8062 30.8855 58.5314 30.1603 58.5314 29.2655C58.5314 28.3708 57.8062 27.6456 56.9114 27.6456ZM32.7214 74.298H25.8099C25.3802 74.298 24.9682 74.4687 24.6644 74.7725C24.3606 75.0763 24.1899 75.4883 24.1899 75.918C24.1899 76.3476 24.3606 76.7596 24.6644 77.0634C24.9682 77.3672 25.3802 77.5379 25.8099 77.5379H32.7214C33.151 77.5379 33.5631 77.3672 33.8669 77.0634C34.1707 76.7596 34.3413 76.3476 34.3413 75.918C34.3413 75.4883 34.1707 75.0763 33.8669 74.7725C33.5631 74.4687 33.151 74.298 32.7214 74.298ZM32.7214 95.0322H25.8099C25.3802 95.0322 24.9682 95.2029 24.6644 95.5067C24.3606 95.8105 24.1899 96.2225 24.1899 96.6521C24.1899 97.0818 24.3606 97.4938 24.6644 97.7976C24.9682 98.1014 25.3802 98.2721 25.8099 98.2721H32.7214C33.151 98.2721 33.5631 98.1014 33.8669 97.7976C34.1707 97.4938 34.3413 97.0818 34.3413 96.6521C34.3413 96.2225 34.1707 95.8105 33.8669 95.5067C33.5631 95.2029 33.151 95.0322 32.7214 95.0322ZM53.4556 95.0322H46.544C46.1144 95.0322 45.7024 95.2029 45.3986 95.5067C45.0948 95.8105 44.9241 96.2225 44.9241 96.6521C44.9241 97.0818 45.0948 97.4938 45.3986 97.7976C45.7024 98.1014 46.1144 98.2721 46.544 98.2721H53.4556C53.8852 98.2721 54.2972 98.1014 54.601 97.7976C54.9048 97.4938 55.0755 97.0818 55.0755 96.6521C55.0755 96.2225 54.9048 95.8105 54.601 95.5067C54.2972 95.2029 53.8852 95.0322 53.4556 95.0322Z" fill="#0000FB"/>
</svg>
